<?xml version='1.0' encoding='UTF-8' standalone='no'?>
<svg xmlns:rdf="http://www.w3.org/1999/02/22-rdf-syntax-ns#" xmlns:svg="http://www.w3.org/2000/svg" width="297mm" height="210mm" xmlns:dc="http://purl.org/dc/elements/1.1/" viewBox="0 0 2970 2100" baseProfile="tiny" xmlns:freecad="http://www.freecadweb.org/wiki/index.php?title=Svg_Namespace" xmlns="http://www.w3.org/2000/svg" xmlns:xlink="http://www.w3.org/1999/xlink" version="1.2" xmlns:cc="http://creativecommons.org/ns#">
 <title>FreeCAD SVG Export</title>
 <desc>Drawing page: Page exported from FreeCAD document: CAD</desc>
 <defs/>
 <g id="Page">
  <g stroke-linejoin="bevel" id="DrawingContent" stroke="black" stroke-width="1" stroke-linecap="square" fill="none" fill-rule="evenodd">
   <g font-family="Noto Sans" transform="matrix(1,0,0,1,1517.09,612.729)" stroke-linejoin="bevel" stroke="#000000" stroke-width="1" font-weight="400" stroke-linecap="square" fill="none" stroke-opacity="1" font-style="normal" font-size="42.3333">
    <rect y="0" width="0" height="0" x="0"/>
   </g>
   <g font-family="Noto Sans" transform="matrix(1,0,0,1,1517.09,612.729)" stroke="none" font-weight="400" fill="#ffffff" font-style="normal" fill-opacity="1" font-size="42.3333">
    <path vector-effect="non-scaling-stroke" d="M1311.29,-140.697 C1301.53,-103.477 1323.64,-65.354 1360.79,-55.3441 L1277.03,255.57 C1259.02,250.718 1239.81,253.255 1223.68,262.617 C1207.55,271.98 1195.82,287.395 1191.1,305.44 C409.438,106.934 -409.438,106.934 -1191.1,305.44 C-1195.82,287.395 -1207.55,271.98 -1223.68,262.617 C-1239.81,253.255 -1259.02,250.718 -1277.03,255.57 L-1360.79,-55.3441 C-1330.23,-63.5766 -1309,-91.2872 -1309,-122.934 C-1309,-128.929 -1309.77,-134.899 -1311.29,-140.697 C-450.895,-360.354 450.895,-360.354 1311.29,-140.697 " fill-rule="evenodd"/>
   </g>
   <g font-family="Noto Sans" transform="matrix(1,0,0,1,1517.09,612.729)" stroke-linejoin="bevel" stroke="#000000" stroke-width="1" font-weight="400" stroke-linecap="square" fill="none" stroke-opacity="1" font-style="normal" font-size="42.3333">
    <rect y="0" width="0" height="0" x="0"/>
   </g>
   <g font-family="Noto Sans" transform="matrix(1,0,0,1,1517.09,612.729)" stroke-linejoin="bevel" stroke="#000000" stroke-width="1" font-weight="400" stroke-linecap="round" fill="none" stroke-opacity="1" font-style="normal" font-size="42.3333">
    <path vector-effect="non-scaling-stroke" d="M1311.29,-140.697 C450.895,-360.354 -450.895,-360.354 -1311.29,-140.697 " fill-rule="evenodd"/>
   </g>
   <g font-family="Noto Sans" transform="matrix(1,0,0,1,1517.09,612.729)" stroke-linejoin="bevel" stroke="#000000" stroke-width="1" font-weight="400" stroke-linecap="round" fill="none" stroke-opacity="1" font-style="normal" font-size="42.3333">
    <path vector-effect="non-scaling-stroke" d="M-1309,-122.934 C-1309,-128.929 -1309.77,-134.899 -1311.29,-140.697 " fill-rule="evenodd"/>
   </g>
   <g font-family="Noto Sans" transform="matrix(1,0,0,1,1517.09,612.729)" stroke-linejoin="bevel" stroke="#000000" stroke-width="1" font-weight="400" stroke-linecap="round" fill="none" stroke-opacity="1" font-style="normal" font-size="42.3333">
    <path vector-effect="non-scaling-stroke" d="M1360.79,-55.3441 L1277.03,255.57" fill-rule="evenodd"/>
   </g>
   <g font-family="Noto Sans" transform="matrix(1,0,0,1,1517.09,612.729)" stroke-linejoin="bevel" stroke="#000000" stroke-width="1" font-weight="400" stroke-linecap="round" fill="none" stroke-opacity="1" font-style="normal" font-size="42.3333">
    <path vector-effect="non-scaling-stroke" d="M1277.03,255.57 C1259.02,250.718 1239.81,253.255 1223.68,262.617 C1207.55,271.98 1195.82,287.395 1191.1,305.44 " fill-rule="evenodd"/>
   </g>
   <g font-family="Noto Sans" transform="matrix(1,0,0,1,1517.09,612.729)" stroke-linejoin="bevel" stroke="#000000" stroke-width="1" font-weight="400" stroke-linecap="round" fill="none" stroke-opacity="1" font-style="normal" font-size="42.3333">
    <path vector-effect="non-scaling-stroke" d="M1191.1,305.44 C409.438,106.934 -409.438,106.934 -1191.1,305.44 " fill-rule="evenodd"/>
   </g>
   <g font-family="Noto Sans" transform="matrix(1,0,0,1,1517.09,612.729)" stroke-linejoin="bevel" stroke="#000000" stroke-width="1" font-weight="400" stroke-linecap="round" fill="none" stroke-opacity="1" font-style="normal" font-size="42.3333">
    <path vector-effect="non-scaling-stroke" d="M-1191.1,305.44 C-1195.82,287.395 -1207.55,271.98 -1223.68,262.617 C-1239.81,253.255 -1259.02,250.718 -1277.03,255.57 " fill-rule="evenodd"/>
   </g>
   <g font-family="Noto Sans" transform="matrix(1,0,0,1,1517.09,612.729)" stroke-linejoin="bevel" stroke="#000000" stroke-width="1" font-weight="400" stroke-linecap="round" fill="none" stroke-opacity="1" font-style="normal" font-size="42.3333">
    <path vector-effect="non-scaling-stroke" d="M-1360.79,-55.3441 L-1277.03,255.57" fill-rule="evenodd"/>
   </g>
   <g font-family="Noto Sans" transform="matrix(1,0,0,1,1517.09,612.729)" stroke-linejoin="bevel" stroke="#000000" stroke-width="1" font-weight="400" stroke-linecap="round" fill="none" stroke-opacity="1" font-style="normal" font-size="42.3333">
    <path vector-effect="non-scaling-stroke" d="M-1360.79,-55.3441 C-1330.23,-63.5766 -1309,-91.2872 -1309,-122.934 " fill-rule="evenodd"/>
   </g>
   <g font-family="Noto Sans" transform="matrix(1,0,0,1,1517.09,612.729)" stroke-linejoin="bevel" stroke="#000000" stroke-width="1" font-weight="400" stroke-linecap="round" fill="none" stroke-opacity="1" font-style="normal" font-size="42.3333">
    <path vector-effect="non-scaling-stroke" d="M1311.29,-140.697 C1301.53,-103.477 1323.64,-65.354 1360.79,-55.3441 " fill-rule="evenodd"/>
   </g>
   <g font-family="Noto Sans" transform="matrix(1,0,0,1,1517.09,612.729)" stroke-linejoin="bevel" stroke="#000000" stroke-width="1" font-weight="400" stroke-linecap="square" fill="none" stroke-opacity="1" font-style="normal" font-size="42.3333">
    <rect y="0" width="0" height="0" x="0"/>
   </g>
   <g font-family="Noto Sans" transform="matrix(0.0943796,0.995536,-0.995536,0.0943796,1173.28,1078.45)" stroke-linejoin="bevel" stroke="#000000" stroke-width="1" font-weight="400" stroke-linecap="square" fill="none" stroke-opacity="1" font-style="normal" font-size="42.3333">
    <text font-family="osifont" y="70" x="4" xml:space="preserve" stroke="none" font-weight="400" fill="#000000" font-style="normal" fill-opacity="1" font-size="50">R3456</text>
   </g>
   <g font-family="Noto Sans" transform="matrix(1,0,0,1,1517.09,612.729)" stroke-linejoin="bevel" stroke="#000000" stroke-width="3.5" font-weight="400" stroke-linecap="round" fill="none" stroke-opacity="1" font-style="normal" font-size="42.3333">
    <path vector-effect="none" d="M-1.20792e-12,4995.62 L-456.709,178.16" fill-rule="evenodd"/>
   </g>
   <g font-family="Noto Sans" transform="matrix(1,0,0,1,1060.38,790.889)" stroke-linejoin="bevel" stroke="#000000" stroke-width="3.5" font-weight="400" stroke-linecap="round" fill="#000000" stroke-opacity="1" font-style="normal" fill-opacity="1" font-size="42.3333">
    <path vector-effect="none" d="M0,0 L-3.57716,50.5633 L13.0151,48.9903 L0,0" fill-rule="evenodd"/>
   </g>
   <g font-family="Noto Sans" transform="matrix(1,0,0,1,1517.09,612.729)" stroke-linejoin="bevel" stroke="#000000" stroke-width="1" font-weight="400" stroke-linecap="square" fill="none" stroke-opacity="1" font-style="normal" font-size="42.3333">
    <rect y="0" width="0" height="0" x="0"/>
   </g>
   <g font-family="Noto Sans" transform="matrix(0.661588,-0.749867,0.749867,0.661588,299.19,760.656)" stroke-linejoin="bevel" stroke="#000000" stroke-width="1" font-weight="400" stroke-linecap="square" fill="none" stroke-opacity="1" font-style="normal" font-size="42.3333">
    <text font-family="osifont" y="70" x="4" xml:space="preserve" stroke="none" font-weight="400" fill="#000000" font-style="normal" fill-opacity="1" font-size="50">R50</text>
   </g>
   <g font-family="Noto Sans" transform="matrix(1,0,0,1,1517.09,612.729)" stroke-linejoin="bevel" stroke="#000000" stroke-width="3.5" font-weight="400" stroke-linecap="round" fill="none" stroke-opacity="1" font-style="normal" font-size="42.3333">
    <path vector-effect="none" d="M-1258.82,323.16 L-1098.03,140.923" fill-rule="evenodd"/>
   </g>
   <g font-family="Noto Sans" transform="matrix(1,0,0,1,304.585,883.398)" stroke-linejoin="bevel" stroke="#000000" stroke-width="3.5" font-weight="400" stroke-linecap="round" fill="#000000" stroke-opacity="1" font-style="normal" fill-opacity="1" font-size="42.3333">
    <path vector-effect="none" d="M0,0 L39.3283,-31.9801 L26.8305,-43.0066 L0,0" fill-rule="evenodd"/>
   </g>
   <g font-family="Noto Sans" transform="matrix(1,0,0,1,1517.09,612.729)" stroke-linejoin="bevel" stroke="#000000" stroke-width="1" font-weight="400" stroke-linecap="square" fill="none" stroke-opacity="1" font-style="normal" font-size="42.3333">
    <rect y="0" width="0" height="0" x="0"/>
   </g>
   <g font-family="Noto Sans" transform="matrix(0,-1,1,0,1436.19,606.849)" stroke-linejoin="bevel" stroke="#000000" stroke-width="1" font-weight="400" stroke-linecap="square" fill="none" stroke-opacity="1" font-style="normal" font-size="42.3333">
    <text font-family="osifont" y="70" x="4" xml:space="preserve" stroke="none" font-weight="400" fill="#000000" font-style="normal" fill-opacity="1" font-size="50">330</text>
   </g>
   <g font-family="Noto Sans" transform="matrix(1,0,0,1,1517.09,612.729)" stroke-linejoin="bevel" stroke="#000000" stroke-width="1.3" font-weight="400" stroke-linecap="round" fill="none" stroke-opacity="1" font-style="normal" font-size="42.3333">
    <path vector-effect="none" d="M-0.0457172,-305.44 L-0.0457172,156.56 M10.3543,156.56 L-10.4457,156.56 M10.3543,-305.44 L-10.4457,-305.44" fill-rule="evenodd"/>
   </g>
   <g font-family="Noto Sans" transform="matrix(1,0,0,1,1517.04,769.289)" stroke-linejoin="bevel" stroke="#000000" stroke-width="1.3" font-weight="400" stroke-linecap="round" fill="#000000" stroke-opacity="1" font-style="normal" fill-opacity="1" font-size="42.3333">
    <path vector-effect="none" d="M0,0 L8.33333,-50 L-8.33333,-50 L0,0" fill-rule="evenodd"/>
   </g>
   <g font-family="Noto Sans" transform="matrix(1,0,0,1,1517.04,307.289)" stroke-linejoin="bevel" stroke="#000000" stroke-width="1.3" font-weight="400" stroke-linecap="round" fill="#000000" stroke-opacity="1" font-style="normal" fill-opacity="1" font-size="42.3333">
    <path vector-effect="none" d="M0,0 L-8.33333,50 L8.33333,50 L0,0" fill-rule="evenodd"/>
   </g>
   <g font-family="Noto Sans" transform="matrix(1,0,0,1,1517.09,612.729)" stroke-linejoin="bevel" stroke="#000000" stroke-width="1" font-weight="400" stroke-linecap="square" fill="none" stroke-opacity="1" font-style="normal" font-size="42.3333">
    <rect y="0" width="0" height="0" x="0"/>
   </g>
   <g font-family="Noto Sans" transform="matrix(1,0,0,1,1466.57,114.669)" stroke-linejoin="bevel" stroke="#000000" stroke-width="1" font-weight="400" stroke-linecap="square" fill="none" stroke-opacity="1" font-style="normal" font-size="42.3333">
    <text font-family="osifont" y="70" x="4" xml:space="preserve" stroke="none" font-weight="400" fill="#000000" font-style="normal" fill-opacity="1" font-size="50">1944</text>
   </g>
   <g font-family="Noto Sans" transform="matrix(1,0,0,1,1517.09,612.729)" stroke-linejoin="bevel" stroke="#000000" stroke-width="1.3" font-weight="400" stroke-linecap="round" fill="none" stroke-opacity="1" font-style="normal" font-size="42.3333">
    <path vector-effect="none" d="M-1360.79,-417.209 L1360.79,-417.209 M1360.79,-55.3441 L1360.79,-427.609 M-1360.79,-55.3441 L-1360.79,-427.609" fill-rule="evenodd"/>
   </g>
   <g font-family="Noto Sans" transform="matrix(1,0,0,1,2877.88,195.519)" stroke-linejoin="bevel" stroke="#000000" stroke-width="1.3" font-weight="400" stroke-linecap="round" fill="#000000" stroke-opacity="1" font-style="normal" fill-opacity="1" font-size="42.3333">
    <path vector-effect="none" d="M0,0 L-50,-8.33333 L-50,8.33333 L0,0" fill-rule="evenodd"/>
   </g>
   <g font-family="Noto Sans" transform="matrix(1,0,0,1,156.3,195.519)" stroke-linejoin="bevel" stroke="#000000" stroke-width="1.3" font-weight="400" stroke-linecap="round" fill="#000000" stroke-opacity="1" font-style="normal" fill-opacity="1" font-size="42.3333">
    <path vector-effect="none" d="M0,0 L50,8.33333 L50,-8.33333 L0,0" fill-rule="evenodd"/>
   </g>
   <g font-family="Noto Sans" transform="matrix(1,0,0,1,1517.09,612.729)" stroke-linejoin="bevel" stroke="#000000" stroke-width="1" font-weight="400" stroke-linecap="square" fill="none" stroke-opacity="1" font-style="normal" font-size="42.3333">
    <rect y="0" width="0" height="0" x="0"/>
   </g>
   <g font-family="Noto Sans" transform="matrix(0,-1,1,0,-13.7515,775.35)" stroke-linejoin="bevel" stroke="#000000" stroke-width="1" font-weight="400" stroke-linecap="square" fill="none" stroke-opacity="1" font-style="normal" font-size="42.3333">
    <text font-family="osifont" y="70" x="4" xml:space="preserve" stroke="none" font-weight="400" fill="#000000" font-style="normal" fill-opacity="1" font-size="50">436</text>
   </g>
   <g font-family="Noto Sans" transform="matrix(1,0,0,1,1517.09,612.729)" stroke-linejoin="bevel" stroke="#000000" stroke-width="1.3" font-weight="400" stroke-linecap="round" fill="none" stroke-opacity="1" font-style="normal" font-size="42.3333">
    <path vector-effect="none" d="M-1449.99,-305.44 L-1449.99,305.44 M-1277.03,305.44 L-1460.39,305.44 M-8.52651e-13,-305.44 L-1460.39,-305.44" fill-rule="evenodd"/>
   </g>
   <g font-family="Noto Sans" transform="matrix(1,0,0,1,67.0985,918.169)" stroke-linejoin="bevel" stroke="#000000" stroke-width="1.3" font-weight="400" stroke-linecap="round" fill="#000000" stroke-opacity="1" font-style="normal" fill-opacity="1" font-size="42.3333">
    <path vector-effect="none" d="M0,0 L8.33333,-50 L-8.33333,-50 L0,0" fill-rule="evenodd"/>
   </g>
   <g font-family="Noto Sans" transform="matrix(1,0,0,1,67.0985,307.289)" stroke-linejoin="bevel" stroke="#000000" stroke-width="1.3" font-weight="400" stroke-linecap="round" fill="#000000" stroke-opacity="1" font-style="normal" fill-opacity="1" font-size="42.3333">
    <path vector-effect="none" d="M0,0 L-8.33333,50 L8.33333,50 L0,0" fill-rule="evenodd"/>
   </g>
  </g>
 </g>
</svg>
