<?xml version="1.0" encoding="UTF-8" standalone="no"?>
<!-- Created with Inkscape (http://www.inkscape.org/) -->

<svg
   width="1945.2117mm"
   height="437.44919mm"
   viewBox="0 0 1945.2116 437.44919"
   version="1.1"
   id="svg5"
   inkscape:version="1.2 (dc2aedaf03, 2022-05-15)"
   sodipodi:docname="Entwurf.svg"
   inkscape:export-filename="/home/thomas/Documents/Kliergarten.png"
   inkscape:export-xdpi="96"
   inkscape:export-ydpi="96"
   xmlns:inkscape="http://www.inkscape.org/namespaces/inkscape"
   xmlns:sodipodi="http://sodipodi.sourceforge.net/DTD/sodipodi-0.dtd"
   xmlns:xlink="http://www.w3.org/1999/xlink"
   xmlns="http://www.w3.org/2000/svg"
   xmlns:svg="http://www.w3.org/2000/svg">
  <sodipodi:namedview
     id="namedview7"
     pagecolor="#ffffff"
     bordercolor="#666666"
     borderopacity="1.0"
     inkscape:pageshadow="2"
     inkscape:pageopacity="0.0"
     inkscape:pagecheckerboard="0"
     inkscape:document-units="mm"
     showgrid="false"
     inkscape:snap-global="false"
     inkscape:zoom="0.16000001"
     inkscape:cx="4293.7498"
     inkscape:cy="809.37496"
     inkscape:window-width="1852"
     inkscape:window-height="1160"
     inkscape:window-x="1748"
     inkscape:window-y="0"
     inkscape:window-maximized="1"
     inkscape:current-layer="layer1"
     fit-margin-top="0"
     fit-margin-left="0"
     fit-margin-right="0"
     fit-margin-bottom="0"
     inkscape:snap-bbox="false"
     inkscape:snap-grids="true"
     inkscape:showpageshadow="2"
     inkscape:deskcolor="#d1d1d1" />
  <defs
     id="defs2">
    <rect
       x="-606.47656"
       y="596.79773"
       width="50.991619"
       height="467.57889"
       id="rect15528" />
    <rect
       x="-114.95341"
       y="724.6933"
       width="438.45239"
       height="87.859657"
       id="rect14290" />
    <rect
       x="6944.6138"
       y="1383.3839"
       width="7052.2021"
       height="651.32513"
       id="rect13800" />
  </defs>
  <g
     inkscape:label="Layer 1"
     inkscape:groupmode="layer"
     id="layer1"
     transform="translate(368.60733,-547.56014)">
    <path
       vector-effect="non-scaling-stroke"
       d="m -246.78548,984.40252 c 558.328,-141.7899 1143.24,-141.7899 1701.56798,0 3.372,-12.889 11.75,-23.899 23.273,-30.587 11.524,-6.688 25.24,-8.5 38.105,-5.034 l 59.831,-222.0815 c -26.539,-7.1499 -42.331,-34.3806 -35.356,-60.9665 -614.56898,-156.898 -1258.70498,-156.898 -1873.27398,0 1.087,4.1419 1.637,8.406 1.637,12.6879 0,22.605 -15.166,42.3983 -36.993,48.2786 l 59.831,222.0815 c 12.865,-3.466 26.581,-1.654 38.105,5.034 11.523,6.688 19.901,17.698 23.273,30.587"
       fill-rule="evenodd"
       id="path1155"
       style="fill:#ffffff;fill-opacity:1;stroke:#000000;stroke-width:1;stroke-linejoin:miter;stroke-dasharray:none;stroke-opacity:1"
       sodipodi:nodetypes="cccccccscccc" />
    <path
       vector-effect="non-scaling-stroke"
       d="m 1449.831,976.65215 c 10.9394,-27.02807 33.896,-40.59502 61.7352,-35.31033 l 54.6441,-209.95975 c -26.0637,-6.66988 -40.6217,-36.25016 -33.7716,-61.05115 -601.81971,-152.81423 -1249.35624,-151.70859 -1854.68674,1.2045 7.81015,29.34883 -15.53843,54.87738 -35.51342,60.77455 l 56.18574,208.166 c 29.00989,-5.20871 48.86729,9.39113 60.88688,35.04919 C 324.6962,828.72477 908.03772,842.68002 1449.831,976.65215 Z"
       fill-rule="evenodd"
       id="path1155-3"
       style="fill:none;fill-opacity:1;stroke:#172983;stroke-width:4;stroke-linejoin:miter;stroke-dasharray:none;stroke-opacity:1"
       sodipodi:nodetypes="ccccccccc" />
    <text
       xml:space="preserve"
       style="font-style:normal;font-weight:normal;font-size:357.222px;line-height:1.25;font-family:sans-serif;letter-spacing:8.93056px;word-spacing:0px;fill:#172983;fill-opacity:1;stroke:none;stroke-width:6.75104;stroke-miterlimit:4;stroke-dasharray:none"
       id="TextNeu"><textPath
         xlink:href="#path1155"
         id="textPath1008"><tspan
           id="tspan6984-7"
           style="font-style:normal;font-variant:normal;font-weight:normal;font-stretch:normal;font-size:357.222px;font-family:'Breitkopf Fraktur';-inkscape-font-specification:'Breitkopf Fraktur';fill:#172983;fill-opacity:1;stroke-width:6.75104;stroke-miterlimit:4;stroke-dasharray:none"
           dx="175"
           dy="-74">Kliergarten</tspan></textPath></text>
  </g>
  <style
     type="text/css"
     id="style33238">
	.st0{fill:#D7B369;}
	.st1{fill:#172983;}
</style>
</svg>
