<?xml version="1.0" encoding="UTF-8" standalone="no"?>
<svg
   height="463.91098mm"
   width="1936.8237mm"
   version="1.2"
   viewBox="0 0 19368.237 4639.1098"
   id="svg98"
   sodipodi:docname="Entwurf.svg"
   inkscape:version="1.2 (dc2aedaf03, 2022-05-15)"
   xmlns:inkscape="http://www.inkscape.org/namespaces/inkscape"
   xmlns:sodipodi="http://sodipodi.sourceforge.net/DTD/sodipodi-0.dtd"
   xmlns:xlink="http://www.w3.org/1999/xlink"
   xmlns="http://www.w3.org/2000/svg"
   xmlns:svg="http://www.w3.org/2000/svg">
  <defs
     id="defs13" />
  <sodipodi:namedview
     id="namedview100"
     pagecolor="#ffffff"
     bordercolor="#666666"
     borderopacity="1.0"
     inkscape:showpageshadow="2"
     inkscape:pageopacity="0.0"
     inkscape:pagecheckerboard="0"
     inkscape:deskcolor="#d1d1d1"
     inkscape:document-units="mm"
     showgrid="false"
     inkscape:zoom="0.16439777"
     inkscape:cx="3114.3975"
     inkscape:cy="1353.4247"
     inkscape:window-width="1610"
     inkscape:window-height="1010"
     inkscape:window-x="70"
     inkscape:window-y="150"
     inkscape:window-maximized="1"
     inkscape:current-layer="svg98" />
  <path
     vector-effect="non-scaling-stroke"
     fill-rule="evenodd"
     d="m 1406.148,4638.4793 c 5374.47,-1783.97 11181.47,-1783.97 16555.941,0 43.24,-126.23 135.14,-229.95 255.25,-288.06 120.11,-58.12 258.47,-65.81 384.29,-21.38 l 765.97,-2168.7 c -258.82,-91.416 -395.55,-374.396 -306.33,-633.983 -6085.911,-2034.47712 -12668.391,-2034.47712 -18754.30103,0 17.97,52.3 27.15,107.221 27.15,162.525 0,211.95 -133.63,400.871 -333.47999744,471.458 l 765.96999744,2168.7 c 125.82,-44.43 264.18003,-36.74 384.29003,21.38 120.11,58.11 212.01,161.83 255.25,288.06"
     id="Outer"
     sodipodi:nodetypes="cccccccccccc"
     style="opacity:1;fill:#ffffff;fill-opacity:1;stroke:#000000;stroke-width:1;stroke-dasharray:none;stroke-opacity:1" />
  <path
     vector-effect="non-scaling-stroke"
     fill-rule="evenodd"
     d="m 17907.328,4526.538 c 122.65,-226.8 376.48,-349.89 630.51,-305.74 l 704.96,-1995.945 c -221.31,-122.913 -341.67,-371.507 -300.82,-621.344 -6011.7,-1988.76102 -12504.0199,-1988.76102 -18515.71993,0 40.85,249.837 -79.51,498.431 -300.82,621.344 l 704.96,1995.945 c 254.03003,-44.15 507.86003,78.94 630.51003,305.74 5342.03,-1752.798 11104.3899,-1752.798 16446.4199,0 z"
     id="Inner"
     sodipodi:nodetypes="ccccccccc"
     style="fill:none;stroke:#172983;stroke-width:19.99999939;stroke-dasharray:none;stroke-opacity:1" />
  <text
     xml:space="preserve"
     id="Text"
     style="letter-spacing:26.4583px;fill:#172983;fill-opacity:1"><textPath
       xlink:href="#Outer"
       id="textPath1786"><tspan
         id="tspan6984-7"
         style="font-style:normal;font-variant:normal;font-weight:normal;font-stretch:normal;font-size:3572.22px;font-family:'Breitkopf Fraktur';-inkscape-font-specification:'Breitkopf Fraktur';fill:#172983;fill-opacity:1;stroke:none;stroke-width:10;stroke-miterlimit:4;stroke-dasharray:none;stroke-opacity:1"
         dx="100 0 0"
         dy="-750 0 0">. Kliergarten .</tspan><textPath
         xlink:href="#path1155"
         id="textPath1008"
         style="fill:#172983;fill-opacity:1;stroke:#000000;stroke-width:1;stroke-dasharray:none;stroke-opacity:1" /></textPath></text>
</svg>
