<?xml version="1.0" encoding="UTF-8" standalone="no"?>
<!-- Created with Inkscape (http://www.inkscape.org/) -->

<svg
   width="1945.2117mm"
   height="437.44919mm"
   viewBox="0 0 1945.2116 437.44919"
   version="1.1"
   id="svg5"
   inkscape:version="1.2 (dc2aedaf03, 2022-05-15)"
   sodipodi:docname="Release.svg"
   inkscape:export-filename="/home/thomas/Documents/Kliergarten.png"
   inkscape:export-xdpi="96"
   inkscape:export-ydpi="96"
   xmlns:inkscape="http://www.inkscape.org/namespaces/inkscape"
   xmlns:sodipodi="http://sodipodi.sourceforge.net/DTD/sodipodi-0.dtd"
   xmlns="http://www.w3.org/2000/svg"
   xmlns:svg="http://www.w3.org/2000/svg">
  <sodipodi:namedview
     id="namedview7"
     pagecolor="#ffffff"
     bordercolor="#666666"
     borderopacity="1.0"
     inkscape:pageshadow="2"
     inkscape:pageopacity="0.0"
     inkscape:pagecheckerboard="0"
     inkscape:document-units="mm"
     showgrid="false"
     inkscape:snap-global="false"
     inkscape:zoom="0.11313709"
     inkscape:cx="3818.3764"
     inkscape:cy="4.4194172"
     inkscape:window-width="1852"
     inkscape:window-height="1160"
     inkscape:window-x="1748"
     inkscape:window-y="0"
     inkscape:window-maximized="1"
     inkscape:current-layer="layer1"
     fit-margin-top="0"
     fit-margin-left="0"
     fit-margin-right="0"
     fit-margin-bottom="0"
     inkscape:snap-bbox="false"
     inkscape:snap-grids="true"
     inkscape:showpageshadow="2"
     inkscape:deskcolor="#d1d1d1" />
  <defs
     id="defs2">
    <rect
       x="-606.47656"
       y="596.79773"
       width="50.991619"
       height="467.57889"
       id="rect15528" />
    <rect
       x="-114.95341"
       y="724.6933"
       width="438.45239"
       height="87.859657"
       id="rect14290" />
    <rect
       x="6944.6138"
       y="1383.3839"
       width="7052.2021"
       height="651.32513"
       id="rect13800" />
  </defs>
  <g
     inkscape:label="Layer 1"
     inkscape:groupmode="layer"
     id="layer1"
     transform="translate(368.60733,-547.56014)">
    <path
       vector-effect="non-scaling-stroke"
       d="m -246.78548,984.40252 c 558.328,-141.7899 1143.24,-141.7899 1701.56798,0 3.372,-12.889 11.75,-23.899 23.273,-30.587 11.524,-6.688 25.24,-8.5 38.105,-5.034 l 59.831,-222.0815 c -26.539,-7.1499 -42.331,-34.3806 -35.356,-60.9665 -614.56898,-156.898 -1258.70498,-156.898 -1873.27398,0 1.087,4.1419 1.637,8.406 1.637,12.6879 0,22.605 -15.166,42.3983 -36.993,48.2786 l 59.831,222.0815 c 12.865,-3.466 26.581,-1.654 38.105,5.034 11.523,6.688 19.901,17.698 23.273,30.587"
       fill-rule="evenodd"
       id="path1155"
       style="fill:#ffffff;fill-opacity:1;stroke:#000000;stroke-width:1;stroke-linejoin:miter;stroke-dasharray:none;stroke-opacity:1"
       sodipodi:nodetypes="cccccccscccc" />
    <path
       vector-effect="non-scaling-stroke"
       d="m 1449.831,976.65215 c 10.9394,-27.02807 33.896,-40.59502 61.7352,-35.31033 l 54.6441,-209.95975 c -26.0637,-6.66988 -40.6217,-36.25016 -33.7716,-61.05115 -601.81971,-152.81423 -1249.35624,-151.70859 -1854.68674,1.2045 7.81015,29.34883 -15.53843,54.87738 -35.51342,60.77455 l 56.18574,208.166 c 29.00989,-5.20871 48.86729,9.39113 60.88688,35.04919 C 324.6962,828.72477 908.03772,842.68002 1449.831,976.65215 Z"
       fill-rule="evenodd"
       id="path1155-3"
       style="fill:none;fill-opacity:1;stroke:#172983;stroke-width:4;stroke-linejoin:miter;stroke-dasharray:none;stroke-opacity:1"
       sodipodi:nodetypes="ccccccccc" />
    <g
       aria-label="Kliergarten"
       id="TextNeu"
       style="font-size:357.222px;line-height:1.25;letter-spacing:8.93056px;word-spacing:0px;fill:#172983;stroke-width:6.75104">
      <path
         d="M 91.341833,671.14992 88.387088,660.05541 Q 85.135788,647.19959 70.964312,636.1824 56.32195,624.52 43.45892,623.42552 q -3.055354,-0.93457 -5.113228,-2.39933 -13.393228,-2.09197 -19.733975,-1.02437 -20.4312975,3.44004 -30.172458,7.97817 -25.934485,13.78512 -39.75897,34.94976 -14.584721,23.1039 -9.958459,50.58047 2.075886,12.32923 5.846576,19.66386 5.005413,8.21348 8.598169,14.49132 3.885709,5.86625 6.358761,9.79686 21.838681,30.73675 22.368878,31.73423 13.4256505,21.64801 15.204982,32.21592 0.1186221,0.70453 -0.3378536,8.75089 -0.3414561,6.57799 -6.1448015,12.98886 -5.8626569,6.0586 -12.2034039,7.1262 -10.215649,1.72002 -18.803011,-6.25262 -2.176496,-2.16929 -5.294764,-5.62901 -2.825315,-3.8713 -6.299449,-9.44461 -5.416988,-8.50643 -6.826043,-8.26919 2.113582,-0.35587 -24.581138,15.3685 3.770689,7.33463 7.66,15.37378 4.182264,7.62758 9.187678,15.84106 l 3.170374,-0.5338 q 8.328502,-6.47378 10.442085,-6.82964 4.931692,-0.83036 15.974093,0.20842 11.042401,1.03878 14.212774,0.50498 13.7382864,-2.31313 26.2238354,-16.36959 18.6968666,-22.34726 12.4098956,-59.68722 -0.830355,-4.93169 -3.310611,-13.20809 -1.534882,-4.81307 -2.420945,-7.92413 -0.593111,-3.52264 -1.2419299,-5.22464 3.1074599,-3.05896 8.3914159,-3.94863 3.874902,-0.65242 12.354449,13.13437 23.966675,39.07246 36.038979,59.13708 6.410866,5.80334 12.291535,10.60921 7.76061,5.21384 8.817401,5.0359 1.409055,-0.23724 2.873819,-2.29511 8.955706,-17.80914 14.10663,-28.0949 5.44388,-10.69735 7.37592,-14.2829 -0.65242,-3.8749 -4.52732,-3.22248 0,0 -3.92701,4.64595 -3.281787,4.17506 -5.747634,4.59023 -7.045274,1.18622 -35.138505,-47.33444 -5.947185,-9.50391 -10.244468,-15.66313 -4.004331,-6.57078 -6.418072,-10.14913 L 66.642073,685.81389 12.921721,659.35835 q -1.761319,0.29656 -3.6969685,1.70921 -25.7942475,27.52701 -29.0292055,59.94969 -17.408366,-15.18144 -20.848406,-35.61274 -1.423466,-8.45433 4.07612,-20.9723 l -1.6463,-1.17181 q 1.290433,-0.94177 1.93565,-1.41266 0.938169,-0.88246 1.524074,-1.70561 15.871552,-26.21856 46.166234,-31.31931 16.204132,-2.72831 25.84108,0.72061 3.114666,1.28683 6.700217,3.21888 3.52624,1.57978 7.523366,3.80478 12.814527,7.2609 14.464428,10.60561 1.883544,2.58086 3.296201,4.51651 1.70561,1.52408 2.647382,2.81451 1.238327,3.05175 2.358032,5.39898 1.060394,1.99496 1.709213,3.69696 4.007933,8.74368 6.37317,18.48845 3.292598,2.34362 5.053917,2.04706 5.988484,-1.00829 3.971908,-12.98525 z M 43.020719,713.3373 q 1.186221,7.04527 -11.829525,20.10425 -9.26307,9.52914 -14.369093,11.47559 -10.7386401,5.06833 -11.0909038,5.12764 l -8.7688979,-11.20232 q -6.8853544,-8.62146 -7.4784653,-12.14409 -0.711732,-4.22717 2.8522036,-15.33248 4.3798803,-14.8652 13.8910014,-16.4666 7.397539,-1.24553 21.502499,5.0736 14.10496,6.31914 15.291181,13.36441 z"
         style="font-family:'Breitkopf Fraktur';-inkscape-font-specification:'Breitkopf Fraktur'"
         id="path1644" />
      <path
         d="m 213.90444,787.72216 q -0.30072,-2.48241 -1.45053,-3.06278 l -2.4824,0.30072 q -3.29948,5.43738 -5.42725,5.69514 -2.48241,0.30072 -9.86478,-4.20246 -8.2205,-5.48116 -8.70401,-6.50209 L 172.70064,670.37024 q -4.59678,-37.94533 13.55416,-45.54168 1.33259,-0.8811 1.95593,-1.67628 0.97797,-0.83814 1.64427,-1.27869 l -0.51553,-4.25555 -8.5111,1.03105 q -6.38333,0.77329 -16.24892,8.44544 -8.17836,6.74808 -12.18709,12.27138 -2.98781,5.03979 -5.39524,8.92976 -2.40743,3.88998 -3.83689,6.94182 -4.88901,-7.68391 -8.85397,-13.68059 -3.61032,-6.03964 -5.899,-10.08039 -1.50443,-0.53742 -2.21369,-0.4515 -0.39759,-0.31166 -0.39759,-0.31166 -2.48241,0.30072 -2.09576,3.49238 0.17184,1.41852 4.74919,9.50002 2.33163,4.39537 3.38457,7.14649 1.36462,2.35352 1.89109,3.72908 2.27773,6.92074 4.01804,15.34592 2.05198,8.02759 3.92118,17.51666 1.64345,10.59592 5.40291,35.68868 l 6.5519,48.14366 q -0.0977,14.04535 -0.0657,17.27997 -5.48115,8.22051 -9.08135,11.17548 28.51948,15.61627 32.5813,19.44221 1.19277,0.93501 1.49349,3.41741 0.0859,0.70926 -0.19373,4.34148 0.12888,1.06388 1.71924,2.31056 l 2.48241,-0.30073 q 11.61766,-14.00156 19.09771,-23.54372 7.48005,-9.54216 11.61766,-14.00157 0.93501,-1.19277 0.63428,-3.67517 z"
         style="font-family:'Breitkopf Fraktur';-inkscape-font-specification:'Breitkopf Fraktur'"
         id="path1646" />
      <path
         d="m 274.37098,619.25233 q -0.60778,-6.4012 -5.31421,-10.61911 -4.70643,-4.2179 -11.10764,-3.61011 -5.68996,0.54025 -9.48471,5.92416 -3.43912,5.35014 -2.89887,11.0401 0.64156,6.75683 7.34233,24.42086 0.49069,1.38872 3.31771,4.70859 l 1.42249,-0.13507 q 3.1848,-4.2495 5.69212,-8.07586 2.82918,-4.21574 5.3365,-8.04209 6.2683,-9.56588 5.69428,-15.61147 z m 28.09622,167.41706 q -0.27013,-2.84498 -4.5376,-2.43979 -1.06687,0.1013 -3.09931,1.37076 -2.03243,1.26946 -2.38806,1.30323 -10.31305,0.97921 -12.6113,-15.66752 l -6.08002,-56.47645 q 0.28809,-0.74502 0.44112,-2.91252 0.15302,-2.1675 0.20475,-5.40187 -0.0833,-4.65686 2.06837,-8.44944 4.15037,-5.41768 6.14904,-7.04276 -14.5604,-9.7412 -25.85051,-26.61064 -0.49068,-1.38873 -2.98004,-1.15237 -1.2199,2.2688 -2.76165,4.92699 -1.18613,2.62442 -2.69411,5.63823 -5.422,10.92084 -17.0584,20.63759 5.80706,4.47223 8.15919,10.34898 0.38939,0.32186 2.4017,10.17799 l 6.04626,56.12084 q -0.0855,2.87874 0.15087,5.3681 0.23636,2.48936 0.0496,4.30124 1.48786,8.11178 2.67183,13.02297 1.53959,4.87742 3.19844,7.23171 4.35081,4.25167 7.88907,7.504 3.53826,3.25233 6.26398,5.50533 1.40453,3.45493 0.86211,5.30057 0.35562,-0.0338 1.84565,0.54242 -0.35563,0.0338 0.35562,-0.0338 0.67748,-0.42315 2.42182,-0.9476 10.11262,-10.64856 15.61795,-16.91254 5.82719,-6.65337 7.40271,-8.95593 0.67747,-0.42316 2.09996,-0.55822 3.92982,-3.96142 3.76099,-5.73953 z"
         style="font-family:'Breitkopf Fraktur';-inkscape-font-specification:'Breitkopf Fraktur'"
         id="path1648" />
      <path
         d="m 411.87138,772.86779 q -0.26173,-3.92072 -3.11316,-3.73037 l -7.91233,4.8244 q -8.29256,4.49177 -12.5697,4.7773 -8.91072,0.59485 -18.98733,-16.27531 -2.82812,-4.82345 -11.21777,-23.23829 l 47.49684,-39.33044 q -5.79899,-11.78546 -10.67098,-20.41065 -4.51557,-8.64898 -7.77149,-14.51792 -0.0238,-0.35643 -0.11897,-1.78214 -0.11897,-1.78215 -0.66575,-4.60978 -0.28553,-4.27714 -2.47169,-4.84724 -10.00331,5.68002 -15.84846,9.29238 -5.86893,3.25592 -7.60349,4.08775 -11.66649,7.58113 -21.52656,20.76995 -11.83209,15.82659 -11.45091,26.89967 -0.45113,3.9683 -0.92605,7.58018 -0.14228,3.23165 -0.66479,6.13067 1.68889,19.93621 1.35625,20.31643 3.16171,15.18367 8.5091,25.56721 5.60864,8.93403 10.38545,16.13351 5.13325,7.17568 9.45846,12.97324 0.0714,1.06928 -1.18778,3.65946 -1.28295,2.23374 -1.23536,2.9466 0.19035,2.85143 3.39821,2.63729 1.78214,-0.11897 52.74857,-35.74284 2.73246,-1.97249 2.58969,-4.11106 z m -31.37147,-62.34883 q 0.0952,1.42571 -10.1456,8.91167 -12.23659,9.7673 -12.90186,10.52774 -2.13857,0.14277 -3.32682,-1.56799 -7.05911,-19.93574 -7.72534,-29.91574 -0.52347,-7.84143 2.80288,-11.64366 1.28295,-2.23374 10.38306,-10.71761 3.35063,1.92443 5.75093,5.70238 5.7514,11.0726 9.45893,18.34346 4.04017,6.89064 5.70382,10.35975 z"
         style="font-family:'Breitkopf Fraktur';-inkscape-font-specification:'Breitkopf Fraktur'"
         id="path1650" />
      <path
         d="m 537.32322,679.16814 q -0.38152,-0.70177 -1.88309,-2.79483 -1.50157,-2.09305 -4.49246,-5.92215 -3.74167,-4.87562 -6.35104,-8.00295 -2.25236,-3.13958 -3.38466,-4.88788 -0.36927,-0.34476 -1.5751,-4.23512 -0.86107,-4.25964 -2.65838,-4.55538 -20.26718,23.92875 -29.84688,36.41026 l -1.05878,0.39378 q -5.94337,-16.95276 -18.43713,-26.88946 -0.81206,-2.83159 -1.23034,-4.60439 -0.0735,-2.14207 -0.45504,-2.84384 l -2.8561,0.098 -25.69753,32.33608 0.0613,1.78506 q 1.47707,1.37903 2.90511,1.33002 0.71403,-0.0245 2.46232,-1.15682 1.7483,-1.1323 2.10531,-1.14456 3.21311,-0.11028 6.31428,6.93192 3.07667,6.32818 4.25634,19.87012 0.78591,12.48316 1.75726,19.95589 l 0.56533,6.05695 q 0.0245,0.71402 -0.6405,2.16658 l -0.665,1.45255 0.3186,9.28231 q -0.0752,8.22352 0.13315,14.29272 0.19606,5.71219 -0.0384,9.29456 0.0735,2.14207 -3.04155,5.10845 -2.77031,2.59712 -2.73355,3.66815 0.0245,0.71402 0.76304,1.40354 4.6534,0.19771 14.51329,6.29306 4.73919,2.6968 8.03807,5.08559 3.29888,2.3888 5.16972,4.82661 0.84882,3.90262 0.54082,5.34292 1.45256,0.66501 1.45256,0.66501 3.87811,-1.56284 10.12051,-7.13859 9.00047,-8.52987 16.30165,-14.4994 7.28893,-6.32653 12.1523,-10.42521 l -0.1348,-3.92713 q -1.47706,-1.37903 -3.26212,-1.31776 -8.00295,6.35104 -8.71697,6.37555 -1.07104,0.0368 -3.60688,-0.9485 -2.17884,-0.99751 -4.72693,-2.33978 -2.56036,-1.69928 -5.12071,-3.39856 -2.20334,-1.71154 -3.32339,-3.10282 -2.68289,-5.2694 -3.49495,-8.10099 l -0.53917,-15.70851 q 0.48119,-6.80773 0.64214,-12.53218 0.16095,-5.72444 0.002,-10.36559 0.0384,-9.29456 -0.1454,-14.64974 -0.18381,-5.35517 0.14869,-6.08145 1.02366,-11.8304 12.22747,-18.64874 14.97895,19.85951 18.68386,23.6641 3.43532,-4.04967 5.83637,-6.99154 2.40105,-2.94188 4.12484,-4.78821 8.60669,-9.58865 8.52091,-12.08773 z"
         style="font-family:'Breitkopf Fraktur';-inkscape-font-specification:'Breitkopf Fraktur'"
         id="path1652" />
      <path
         d="m 662.85473,810.21152 0.0239,-17.14664 -7.10707,-26.80159 q -1.42091,-5.71753 -2.12789,-11.07686 -0.70697,-5.35932 -0.69949,-10.71764 l 0.0249,-17.86108 q 0.0179,-12.85998 2.89264,-25.00153 0.71694,-1.78511 1.43387,-3.57023 0.71743,-2.14233 1.43487,-4.28466 2.86773,-7.14045 3.22595,-7.85439 -0.35622,-0.71495 -15.70081,-12.16746 -1.42789,-0.71644 -4.99712,-2.86475 -3.21201,-2.14781 -9.27929,-6.08572 -9.2798,-5.7285 -11.77487,-9.66142 0.35722,4.9e-4 0.36619,-6.42949 0.004,-2.85778 -3.21101,-2.86226 -1.78611,-0.002 -17.52528,15.33612 -8.22706,7.84742 -12.87692,12.1276 -4.29263,4.28068 -5.36629,5.70807 -13.23713,14.27044 -20.40398,30.33544 -3.58268,7.49668 -3.60061,20.35666 -0.0105,7.50165 3.1851,21.43778 0.71046,2.85877 1.42191,5.00309 0.71146,2.14433 1.42391,3.57421 1.06618,3.93094 1.77664,6.78971 0.71095,2.50154 1.06618,3.93093 5.69911,11.79628 9.26286,17.87403 -0.009,6.78721 -1.80205,11.4286 2.49806,1.7896 4.28417,1.79209 1.42888,0.002 3.5757,-2.49557 20.75373,-24.97662 38.98,-30.66676 1.4259,2.14532 2.13636,5.00409 3.19257,16.07946 5.32694,22.51244 7.47026,22.51543 7.46628,25.3732 -0.0314,22.50496 -22.54133,26.04579 -7.14643,1.41893 -9.28976,1.41594 l -6.42999,-0.009 q -3.21499,-0.004 -7.14244,-1.43885 -3.57072,-1.07665 -6.425,-3.58119 -2.85479,-2.14731 -4.63691,-5.00757 -1.78212,-2.86027 -1.0632,-6.07427 0.36021,-2.14283 0.3632,-4.28616 0.36021,-2.14283 0.3627,-3.92894 0.0219,-15.71775 -13.90972,-15.73718 -11.78831,-0.0164 -11.80924,14.98687 -0.0214,15.36053 17.46999,24.31548 13.20773,6.80565 28.92548,6.82757 6.42999,0.009 16.79241,-2.11992 21.08205,-4.25727 32.52759,-14.60075 2.50305,-1.78262 4.65136,-5.35185 2.14781,-3.21201 4.65484,-7.8524 4.65634,-8.92406 4.66431,-14.63961 z M 624.43172,697.6329 q -0.007,5.0011 -2.16525,15.71476 -0.72192,5.35733 -1.44184,9.28577 -0.3622,3.57172 -0.36569,6.07227 l -0.0249,17.86108 q -0.002,1.78611 0.34975,5.35883 0.35274,3.21549 0.35074,4.64438 -0.005,3.57221 -16.80884,13.90823 -4.63143,-8.93702 -6.76828,-13.58389 -10.32755,-22.87663 -11.74796,-28.9514 -1.42092,-5.71753 -2.12739,-11.43408 -0.70647,-5.71654 -0.69801,-11.78931 0.004,-2.85777 0.008,-5.71554 0.3612,-2.85728 0.72291,-6.07177 0.35971,-1.78561 1.43486,-4.28467 1.07516,-2.49906 3.58069,-6.06779 5.01107,-7.13746 7.51162,-7.13397 2.50055,0.003 23.55421,16.10786 4.6389,3.57869 4.63541,6.07924 z"
         style="font-family:'Breitkopf Fraktur';-inkscape-font-specification:'Breitkopf Fraktur'"
         id="path1654" />
      <path
         d="m 809.92754,775.90772 q -0.67034,-1.09979 -2.38246,-2.95695 -8.68229,2.50733 -6.54073,2.59435 -6.78162,-0.27558 -8.5259,-18.93733 -1.09412,-8.26735 -0.60098,-20.40288 0.3626,-8.92318 1.03861,-16.76108 1.04745,-8.18032 2.08039,-16.00372 2.72172,-14.19007 8.19167,-16.82793 l 0.087,-2.14157 -21.97879,-13.40621 q -5.23788,-3.07298 -10.10432,-6.48838 -4.85195,-3.77233 -9.68939,-7.90159 l 0.17405,-4.28313 q 0.13054,-3.21234 -2.35345,-3.6708 -16.29947,13.99585 -27.84285,25.32483 -11.18646,11.34349 -17.63133,20.37703 -16.27613,22.21969 -17.29141,47.2046 -0.69619,17.13252 3.73514,31.25575 4.44583,13.76629 9.70704,25.06311 0.26991,2.15607 0.19739,3.9407 0.28441,1.79914 -0.13054,3.21235 2.49849,0.10153 3.19784,0.48746 l 45.08257,-36.06482 q 1.6251,3.99872 2.20841,7.24008 0.95475,2.89893 1.21015,5.41193 l 9.26877,18.25248 q -0.0435,1.07078 -0.82988,2.82641 -0.77188,1.3987 -0.78638,1.75563 0.32792,0.72836 0.2554,2.513 2.49849,0.10152 2.84092,0.47295 z M 766.90073,699.7958 q 0.0145,-0.35692 -2.48966,8.47924 -2.35029,13.84765 -3.44125,23.09875 -1.07645,8.89418 -1.59292,12.80588 l -0.68169,16.77558 q -0.78638,1.75563 -9.27128,8.20366 -8.12798,6.46254 -9.91262,6.39002 -3.56927,-0.14504 -7.92808,-16.05291 -1.56708,-5.42643 -2.44931,-10.11 -0.86773,-5.04049 -1.39303,-9.70956 l -2.3276,-21.9031 0.40611,-9.99397 q 0.21756,-5.35391 1.14897,-10.67882 1.28835,-5.3104 2.8756,-9.17858 1.60176,-4.22511 3.48792,-6.65109 1.90067,-2.7829 3.32838,-2.72488 2.85542,0.11603 30.34199,18.75129 z"
         style="font-family:'Breitkopf Fraktur';-inkscape-font-specification:'Breitkopf Fraktur'"
         id="path1656" />
      <path
         d="m 944.74492,694.53726 q -0.30018,-0.74023 -1.55685,-2.98887 -1.25666,-2.24864 -3.79796,-6.3898 -3.16964,-5.26547 -5.41076,-8.66641 -1.88499,-3.37296 -2.81351,-5.23751 -0.32815,-0.38409 -1.08882,-4.38539 -0.37658,-4.32944 -2.12923,-4.82543 -22.82961,21.49774 -33.75218,32.82276 l -1.09635,0.2722 q -3.99919,-17.51359 -15.29623,-28.79229 -0.48847,-2.90495 -0.70473,-4.71354 0.16783,-2.13676 -0.13235,-2.87698 l -2.849,-0.22378 -29.17098,29.24106 -0.13986,1.78062 q 1.31261,1.53639 2.73711,1.64828 0.71225,0.056 2.57679,-0.87256 1.86455,-0.92852 2.22067,-0.90054 3.20513,0.25175 5.49468,7.59803 2.34549,6.63404 1.99478,20.22274 -0.62292,12.49235 -0.4981,20.02692 l -0.11941,6.0821 q -0.0559,0.71225 -0.88009,2.0808 l -0.82414,1.36856 -0.72729,9.25925 q -0.9995,8.1629 -1.47503,14.21703 -0.44757,5.698 -1.08342,9.23128 -0.16783,2.13675 -3.59674,4.734 -3.04481,2.26909 -3.12873,3.33747 -0.0559,0.71225 0.60036,1.48044 4.60165,0.71977 13.71352,7.88529 4.40585,3.21264 7.41516,5.95727 3.00932,2.74463 4.59414,5.37737 0.40455,3.97332 -0.0635,5.36985 1.36856,0.82414 1.36856,0.82414 4.02926,-1.1168 10.85911,-5.95517 9.90262,-7.46358 17.82881,-12.57416 7.95416,-5.4667 13.24761,-8.99246 l 0.3077,-3.91737 q -1.31261,-1.53639 -3.09323,-1.67626 -8.66641,5.41076 -9.37867,5.35481 -1.06837,-0.0839 -3.47733,-1.3481 -2.05283,-1.23621 -4.43381,-2.85652 -2.35302,-1.97643 -4.70603,-3.95287 -1.99689,-1.94846 -2.95337,-3.45688 -2.07329,-5.53768 -2.56175,-8.44263 l 1.23079,-15.6695 q 1.24374,-6.71044 2.04742,-12.38046 0.80369,-5.67003 1.16734,-10.29966 1.08341,-9.23128 1.503,-14.57315 0.41959,-5.34188 0.83166,-6.02616 2.3476,-11.64023 14.24712,-17.15536 12.65055,21.41804 15.90411,25.61514 3.86895,-3.63765 6.5856,-6.29084 2.71666,-2.65319 4.63715,-4.29395 9.63042,-8.55994 9.82623,-11.05281 z"
         style="font-family:'Breitkopf Fraktur';-inkscape-font-specification:'Breitkopf Fraktur'"
         id="path1658" />
      <path
         d="m 1053.7951,704.0243 1.7054,-15.26558 q -1.5768,-1.97337 -2.6418,-2.09235 -5.3252,-0.5949 -12.1102,-0.99342 -6.4299,-0.35886 -14.6745,-0.56101 -2.0488,-4.18277 0.2079,-17.94898 1.2672,-8.12565 1.8224,-13.09584 0.9103,-4.93053 0.7536,-6.74526 -5.6444,5.48 -9.7895,10.4086 -3.7503,4.61326 -5.9616,8.32011 -19.97167,17.89777 -35.63577,22.97732 l -0.5949,5.3252 q 7.69132,1.93756 9.34741,3.2009 5.28362,4.18469 4.2128,13.77006 -0.15864,1.42005 -0.39659,3.55013 -0.1983,1.77507 -0.83093,4.22051 l -0.91218,8.16531 q 0.0774,2.52475 -0.23988,5.36486 0.0774,2.52476 -0.3192,6.07489 l -5.4692,42.52231 q -2.68725,7.96702 -4.97597,9.14911 -0.71002,-0.0793 -4.45846,1.29915 -3.70877,1.02346 -4.3414,3.4689 13.13165,7.93697 27.44155,24.63223 0.55139,1.49938 0.47207,2.2094 0.27569,0.74969 0.55139,1.49938 1.14243,2.64373 2.56249,2.80237 8.48447,-5.16272 16.65367,-10.72011 8.5242,-5.51773 17.0087,-10.68044 6.1958,-3.98062 7.9728,-7.01711 l -1.2614,-1.57869 -2.8401,-0.31728 q -5.6444,5.48 -7.7745,5.24204 -3.1952,-0.35694 -9.4248,-5.72565 -6.5451,-5.76339 -6.2675,-8.24848 0.6762,-9.27002 0.9161,-14.63488 0.6345,-5.68022 0.8328,-7.45528 -0.119,1.06504 -0.079,0.71002 0.3947,-0.31535 0.948,-2.05076 0.474,-1.02538 1.7034,-12.0308 -0.04,0.35501 0.2777,-2.4851 0.3172,-2.84011 0.5968,-8.55998 l 0.8725,-7.8103 3.1331,-28.04608 1.184,-0.94606 q 27.1794,1.23908 29.8231,0.0966 z"
         style="font-family:'Breitkopf Fraktur';-inkscape-font-specification:'Breitkopf Fraktur'"
         id="path1660" />
      <path
         d="m 1154.5673,810.43711 q 0.5569,-3.88978 -2.2721,-4.2948 l -8.7407,3.07893 q -9.0437,2.6747 -13.2871,2.06716 -8.8404,-1.26571 -15.2,-19.85861 -1.7665,-5.30502 -6.1555,-25.05924 l 54.6197,-28.62725 q -3.2292,-12.73174 -6.2069,-22.17968 -2.6241,-9.39731 -4.5923,-15.81381 0.051,-0.35362 0.2531,-1.76808 0.2531,-1.76808 0.3046,-4.64764 0.6075,-4.24339 -1.4129,-5.2544 -10.9637,3.4824 -17.4308,5.80427 -6.4165,1.96824 -8.2859,2.42233 -12.9849,4.99734 -25.3653,15.85505 -14.8566,13.02926 -16.7797,23.94072 -1.2641,3.78852 -2.4777,7.22343 -0.8092,3.13191 -1.9215,5.85959 -2.4816,19.85312 -2.8858,20.15611 -0.055,15.50926 3.0228,26.77591 3.6343,9.90282 6.8145,17.93629 3.5338,8.08411 6.5629,14.6525 -0.1519,1.06084 -1.9207,3.33364 -1.7183,1.91919 -1.8195,2.62642 -0.4051,2.82893 2.7775,3.28458 1.7681,0.25314 59.0134,-24.02867 3.0821,-1.36305 3.3859,-3.48475 z m -17.7617,-67.49865 q -0.2026,1.41447 -11.773,6.61432 -13.9959,7.01778 -14.8044,7.62375 -2.1217,-0.30377 -2.9294,-2.22373 -2.772,-20.96617 -1.3544,-30.86742 1.1138,-7.77955 5.1563,-10.80943 1.7182,-1.91918 12.3797,-8.33177 2.8787,2.57735 4.4435,6.7709 3.3305,12.02451 5.4499,19.9061 2.5236,7.57861 3.4318,11.31728 z"
         style="font-family:'Breitkopf Fraktur';-inkscape-font-specification:'Breitkopf Fraktur'"
         id="path1662" />
      <path
         d="m 1312.5021,834.01185 q 0.1282,-0.70285 -0.095,-1.4698 -0.1591,-1.11838 -0.095,-1.4698 l -2.8114,-0.51289 -6.6794,2.77576 q -10.1912,-1.85922 -5.3188,-28.56729 0.1924,-1.05426 0.8644,-2.74726 1.0234,-1.62889 1.1516,-2.33173 1.8901,-8.37001 2.885,-15.81398 l 1.4745,-8.08271 q 3.1415,-17.21967 4.4854,-20.60566 3.5166,-3.35276 6.4895,-5.71536 3.3242,-2.29848 6.1047,-3.60681 l -9.9633,-9.07999 q -12.3876,-15.69528 -10.4999,-20.07143 -0.2232,-0.76695 0.2256,-3.2269 -0.3514,-0.0641 -1.3416,-0.60787 -0.9901,-0.54375 -1.3415,-0.60787 l -50.3697,25.30709 q -0.3515,-0.0641 -0.9902,-0.54375 -0.2873,-0.41553 -0.6387,-0.47964 2.7852,-9.29606 -6.791,-24.47845 -0.8928,-3.06781 -2.0729,-6.55117 -1.116,-3.83477 -2.8731,-4.15532 -2.1085,-0.38467 -30.3648,19.15247 -2.4932,1.72386 -2.8778,3.83239 13.6057,9.01826 10.4642,26.23793 l -9.4884,52.01044 q -1.7951,9.83981 -5.1217,16.13216 l -7.0641,4.88428 -0.4488,2.45996 q 10.9226,7.80252 18.5138,29.88512 6.81,-7.47246 9.4955,-10.25059 13.0738,-9.9609 23.6497,-10.21022 1.1184,-0.15909 1.5031,-2.26762 -12.6464,-10.29572 -9.4457,-19.87909 0.1283,-0.70284 -0.095,-1.46979 -0.1591,-1.11838 -0.031,-1.82122 l 3.9749,-21.78816 q 0.3205,-1.75711 1.249,-4.8558 0.9925,-3.4501 1.313,-5.20721 l 5.4495,-29.87086 q 1.1516,-2.33173 8.3748,-6.09764 7.7027,-4.40464 10.1627,-3.95586 2.8114,0.51289 7.6007,6.10715 5.7794,6.13801 4.9128,12.87914 0.1923,-1.05427 -0.5129,2.81137 -0.6411,3.51422 -2.5953,12.23566 l -11.6659,59.96491 q -1.7595,3.67331 3.5071,12.6227 6.7031,11.02705 6.8622,12.14543 0.19,2.9396 0.1567,5.11224 0.3823,1.88533 0.4773,3.35513 -0.3514,-0.0641 3.0037,-0.54138 6.2971,-4.66108 10.9321,-8.17292 4.635,-3.51184 8.0233,-6.16175 17.9012,-14.52701 18.2859,-16.63554 z"
         style="font-family:'Breitkopf Fraktur';-inkscape-font-specification:'Breitkopf Fraktur'"
         id="path1664" />
    </g>
  </g>
  <style
     type="text/css"
     id="style33238">
	.st0{fill:#D7B369;}
	.st1{fill:#172983;}
</style>
</svg>
