<?xml version="1.0" encoding="UTF-8" standalone="no"?>
<svg
   height="463.91098mm"
   width="1936.8237mm"
   version="1.2"
   viewBox="0 0 19368.237 4639.1098"
   id="svg98"
   sodipodi:docname="Release.svg"
   inkscape:version="1.2 (dc2aedaf03, 2022-05-15)"
   xmlns:inkscape="http://www.inkscape.org/namespaces/inkscape"
   xmlns:sodipodi="http://sodipodi.sourceforge.net/DTD/sodipodi-0.dtd"
   xmlns="http://www.w3.org/2000/svg"
   xmlns:svg="http://www.w3.org/2000/svg">
  <defs
     id="defs13" />
  <sodipodi:namedview
     id="namedview100"
     pagecolor="#ffffff"
     bordercolor="#666666"
     borderopacity="1.0"
     inkscape:showpageshadow="2"
     inkscape:pageopacity="0.0"
     inkscape:pagecheckerboard="0"
     inkscape:deskcolor="#d1d1d1"
     inkscape:document-units="mm"
     showgrid="false"
     inkscape:zoom="0.11624678"
     inkscape:cx="3845.2679"
     inkscape:cy="890.34726"
     inkscape:window-width="1610"
     inkscape:window-height="1010"
     inkscape:window-x="70"
     inkscape:window-y="150"
     inkscape:window-maximized="1"
     inkscape:current-layer="svg98" />
  <path
     vector-effect="non-scaling-stroke"
     fill-rule="evenodd"
     d="m 1406.148,4638.4793 c 5374.47,-1783.97 11181.47,-1783.97 16555.941,0 43.24,-126.23 135.14,-229.95 255.25,-288.06 120.11,-58.12 258.47,-65.81 384.29,-21.38 l 765.97,-2168.7 c -258.82,-91.416 -395.55,-374.396 -306.33,-633.983 -6085.911,-2034.47712 -12668.391,-2034.47712 -18754.30103,0 17.97,52.3 27.15,107.221 27.15,162.525 0,211.95 -133.63,400.871 -333.47999744,471.458 l 765.96999744,2168.7 c 125.82,-44.43 264.18003,-36.74 384.29003,21.38 120.11,58.11 212.01,161.83 255.25,288.06"
     id="Outer"
     sodipodi:nodetypes="cccccccccccc"
     style="opacity:1;fill:#ffffff;fill-opacity:1;stroke:#000000;stroke-width:1;stroke-dasharray:none;stroke-opacity:1" />
  <path
     vector-effect="non-scaling-stroke"
     fill-rule="evenodd"
     d="m 17907.328,4526.538 c 122.65,-226.8 376.48,-349.89 630.51,-305.74 l 704.96,-1995.945 c -221.31,-122.913 -341.67,-371.507 -300.82,-621.344 -6011.7,-1988.76102 -12504.0199,-1988.76102 -18515.71993,0 40.85,249.837 -79.51,498.431 -300.82,621.344 l 704.96,1995.945 c 254.03003,-44.15 507.86003,78.94 630.51003,305.74 5342.03,-1752.798 11104.3899,-1752.798 16446.4199,0 z"
     id="Inner"
     sodipodi:nodetypes="ccccccccc"
     style="fill:none;stroke:#172983;stroke-width:19.99999939;stroke-dasharray:none;stroke-opacity:1" />
  <g
     aria-label=". Kliergarten ."
     id="Text"
     style="letter-spacing:26.4583px;fill:#172983">
    <path
       d="m 4669.7912,1301.4679 -34.4518,-109.5214 q -38.1975,-126.9853 -184.6712,-230.74636 -151.4648,-109.99747 -280.4546,-115.21159 -30.9389,-7.97776 -52.1486,-21.69582 -134.7301,-14.94328 -197.6001,-1.45825 -202.5812,43.45177 -297.8784,93.11988 -252.9584,149.24734 -381.655,366.83194 -135.4291,237.296 -76.9939,509.7327 26.2208,122.2473 67.152,193.8442 53.657,79.8278 92.3406,140.9464 41.4273,56.8767 67.8812,95.0442 231.8388,297.3522 237.5791,307.0814 143.7501,210.2958 166.2252,315.0792 1.4983,6.9855 0.5161,87.5725 -0.486,65.8667 -55.6113,132.4925 -55.8744,63.1331 -118.7445,76.6182 -101.2905,21.7259 -190.6245,-54.103 -22.7081,-20.7036 -55.3984,-53.88 -29.9467,-37.4183 -67.132,-91.5514 -57.8989,-82.5714 -71.87,-79.5747 20.9567,-4.495 -238.7342,164.4637 40.9312,71.597 83.3607,150.1795 45.1731,74.3406 98.83,154.1683 l 31.4351,-6.7425 q 80.3238,-68.3772 101.2805,-72.8723 48.8989,-10.4883 159.6756,-5.0211 110.7767,5.4671 142.2117,-1.2754 136.2184,-29.2175 254.6998,-175.1951 176.8463,-231.5657 97.4345,-601.8003 -10.4884,-48.8989 -38.9468,-130.4781 -17.4739,-47.4005 -27.7092,-78.0864 -7.4917,-34.9277 -14.7303,-51.6425 29.6836,-31.9411 82.0753,-43.1786 38.4206,-8.2409 129.2629,125.72 256.8044,379.6805 386.3303,574.76 66.6259,55.1253 127.5115,100.5214 79.8478,48.6358 90.3262,46.3883 13.9711,-2.9967 27.6891,-24.2064 81.5492,-181.8976 128.4336,-286.9441 49.628,-109.2884 67.3349,-145.9676 -8.2408,-38.4205 -46.6614,-30.1797 0,0 -37.1653,48.1598 -30.9288,43.1686 -55.3783,48.4128 -69.8556,14.9834 -372.0861,-457.2508 -63.6393,-92.3006 -109.3085,-151.9209 -42.9256,-63.8622 -68.6303,-98.5369 l 194.7663,-454.6175 -548.4364,-240.4054 q -17.4639,3.7459 -36.1731,18.7192 -245.4466,286.468 -263.3465,611.8126 -180.6623,-143.9231 -224.1141,-346.5042 -17.98,-83.8267 31.3949,-211.3282 l -16.9678,-10.9744 q 12.4728,-9.9822 18.7092,-14.9734 8.98,-9.233 14.4672,-17.7169 146.8997,-268.98404 447.2786,-333.41252 160.6679,-34.46175 258.4757,-4.29206 31.688,11.47055 68.3672,29.17748 35.93,14.21416 76.8512,34.6647 131.2473,66.8389 149.2173,99.5191 19.9645,24.9456 34.9378,43.6548 17.717,14.4672 27.6992,26.94 13.7281,29.9366 25.9578,52.8877 11.4806,19.4584 18.7192,36.1731 43.9278,85.5681 71.8901,181.8675 33.9356,21.9489 51.3995,18.2031 59.3772,-12.7359 33.9055,-131.4904 z m -463.9733,442.944 q 14.9833,69.8556 -109.2383,206.104 -88.3017,99.3162 -138.4458,121.032 -105.0264,55.4084 -108.5192,56.1576 l -92.5837,-108.0131 q -72.6192,-83.0675 -80.1109,-117.9952 -8.99,-41.9134 21.6758,-154.4415 37.1452,-150.4526 131.4502,-170.6801 73.3484,-15.7325 217.0684,41.1241 143.7201,56.8566 158.7035,126.7122 z"
       style="font-size:3572.22px;font-family:'Breitkopf Fraktur';-inkscape-font-specification:'Breitkopf Fraktur';stroke:none;stroke-width:0"
       id="path804" />
    <path
       d="m 5900.7245,2434.9922 q -3.8068,-24.7141 -15.4862,-30.1437 l -24.7141,3.8068 q -31.2228,55.4102 -52.4062,58.6732 -24.7141,3.8068 -99.9526,-38.8191 -83.9312,-52.13 -89.0932,-62.178 L 5451.0286,1275.3818 q -58.1898,-377.77217 120.7736,-459.55389 13.0346,-9.23648 19.0081,-17.38531 9.5041,-8.69265 16.0214,-13.31089 l -6.5259,-42.36698 -84.734,13.05193 q -63.5504,9.78894 -159.6789,89.65431 -79.5633,70.08505 -117.8472,126.58299 -28.236,51.33584 -51.0424,90.99234 -22.8063,39.6564 -36.1086,70.6202 -51.3445,-75.2212 -92.9087,-133.87721 -38.0336,-59.19982 -62.2124,-98.84764 -15.21,-4.88584 -22.2712,-3.79818 -4.0744,-2.98675 -4.0744,-2.98675 -24.714,3.80681 -19.8196,35.58204 2.1753,14.12232 50.5331,93.41794 24.7227,43.1784 36.1345,70.3354 14.3985,23.0826 20.1044,36.6611 24.999,68.4363 45.1121,152.0826 23.0998,79.5719 44.8444,173.8099 19.8455,105.3736 65.5186,354.9572 l 81.022,479.0714 q 3.5565,140.4118 4.9204,172.7309 -52.13,83.9312 -87.1596,114.6274 290.086,146.8773 331.9178,183.806 12.2232,8.9603 16.03,33.6743 1.0877,7.0612 -0.5352,43.4547 1.6315,10.5917 17.9292,22.5387 l 24.714,-3.8068 q 111.5975,-143.6921 183.2795,-241.4779 71.682,-97.7859 111.5975,-143.6921 8.9602,-12.2232 5.1534,-36.9373 z"
       style="font-size:3572.22px;font-family:'Breitkopf Fraktur';-inkscape-font-specification:'Breitkopf Fraktur';stroke:none;stroke-width:10"
       id="path806" />
    <path
       d="m 6404.9411,742.12543 q -7.772,-63.82854 -55.9374,-104.74562 -48.1654,-40.91709 -111.994,-33.14514 -56.7364,6.90839 -93.2439,61.73411 -32.9615,54.39393 -26.0531,111.13041 8.2037,67.37456 79.8686,242.17721 5.2732,13.7524 34.4131,46.1902 l 14.1841,-1.7271 q 30.7108,-43.324 54.7613,-82.23854 27.1647,-42.8923 51.2152,-81.80679 60.1263,-97.28624 52.7861,-157.56874 z m 325.2262,1666.13767 q -3.4542,-28.3682 -46.0065,-23.1869 -10.6381,1.2953 -30.619,14.524 -19.9808,13.2288 -23.5268,13.6606 -102.8349,12.5214 -130.2204,-153.2784 l -75.7442,-562.9552 q 2.6825,-7.5238 3.6378,-29.2318 0.9554,-21.7079 0.6155,-54.054 -2.0671,-46.5301 18.4374,-85.0128 40.0535,-55.2575 59.6026,-72.0323 -148.1341,-93.5195 -265.4657,-259.163 -5.2731,-13.7524 -30.0953,-10.7299 -11.5935,23.0032 -26.3012,49.9843 -11.1617,26.5493 -25.4376,57.0764 -51.3071,110.6068 -165.0556,210.8237 59.2353,43.1678 84.3057,101.2914 3.9778,3.1142 26.7055,101.1077 l 75.3125,559.4092 q -0.092,28.8 2.9306,53.6222 3.0224,24.8222 1.6353,42.9841 17.0229,80.6952 30.1598,129.476 16.6829,48.3491 33.8894,71.4442 44.6194,41.3489 80.8515,72.9232 36.232,31.5743 64.0766,53.3741 14.9558,34.165 10.0227,52.7587 3.546,-0.4318 18.5937,4.9332 -3.5461,0.4317 3.546,-0.4318 6.6603,-4.4096 23.9586,-10.1145 98.269,-109.1278 151.6431,-173.2045 56.4884,-68.0544 71.6279,-91.4895 6.6603,-4.4095 20.8444,-6.1366 38.2346,-40.6416 36.0757,-58.3718 z"
       style="font-size:3572.22px;font-family:'Breitkopf Fraktur';-inkscape-font-specification:'Breitkopf Fraktur';stroke:none;stroke-width:10"
       id="path808" />
    <path
       d="m 7765.6445,2253.1785 q -3.4031,-39.1468 -31.8735,-36.6718 l -78.1398,49.8214 q -82.0079,46.5719 -124.7135,50.2844 -88.9699,7.7345 -193.0995,-158.912 -29.2429,-47.6575 -116.8161,-230.0862 l 466.9842,-402.7518 q -60.3421,-116.6678 -110.7822,-201.9251 -46.8812,-85.5668 -80.6111,-143.5913 -0.3094,-3.5588 -1.5469,-17.794 -1.5469,-17.794 -7.5807,-45.955 -3.7126,-42.7055 -25.6842,-47.9669 -98.8738,58.7952 -156.5889,96.0839 -58.0245,33.7298 -75.1997,42.3943 -115.1209,78.1361 -211.0565,211.9755 -115.1227,160.6072 -109.0907,271.2393 -3.7144,39.7655 -7.7382,75.9722 -0.7744,32.3386 -5.4169,61.4277 20.8841,198.9833 17.6347,202.8515 34.6561,151.172 90.2019,253.914 57.867,88.1974 107.0696,159.2195 52.7614,70.7128 97.1676,127.8092 0.9282,10.6764 -11.1414,36.8255 -12.3789,22.5903 -11.7601,29.7079 2.475,28.4704 34.5042,25.686 17.794,-1.5469 520.2106,-367.9364 26.9234,-20.2691 25.0671,-41.6218 z m -326.1571,-617.0706 q 1.2376,14.2351 -99.6481,91.1337 -120.3822,100.1076 -126.8811,107.844 -21.3527,1.8563 -33.576,-15.0096 -74.5755,-197.9013 -83.2382,-297.5477 -6.8063,-78.2935 25.6878,-116.9753 12.3789,-22.5903 101.6601,-109.2371 33.8855,18.5684 58.6414,55.8588 59.7234,109.5502 98.2495,181.5006 41.7756,68.0821 59.1046,102.4326 z"
       style="font-size:3572.22px;font-family:'Breitkopf Fraktur';-inkscape-font-specification:'Breitkopf Fraktur';stroke:none;stroke-width:10"
       id="path810" />
    <path
       d="m 8954.8409,1303.5228 q -3.9009,-6.9705 -19.1719,-27.7155 -15.2709,-20.7451 -45.6466,-58.6668 -38.0111,-48.2943 -64.4859,-79.2456 -22.9065,-31.1176 -34.4428,-48.4605 -3.7346,-3.4021 -16.2686,-42.1552 -9.1318,-42.4876 -27.1398,-45.2247 -199.7256,241.7521 -293.9865,367.7313 l -10.5388,4.0671 q -61.5057,-168.7868 -187.6512,-266.616 -8.4668,-28.2143 -12.8664,-45.8898 -0.9976,-21.4101 -4.8984,-28.3805 l -28.5468,1.3301 -252.9952,326.4843 0.8313,17.8417 q 14.9385,13.6084 29.2118,12.9433 7.1367,-0.3325 24.4797,-11.8688 17.343,-11.5364 20.9113,-11.7027 32.1152,-1.4963 63.9872,68.5406 31.5395,62.9002 44.9941,198.1649 9.3875,124.7259 20.0157,199.3287 l 6.3948,60.4957 q 0.3325,7.1367 -6.1392,21.7426 l -6.4716,14.6059 4.3228,92.7771 q 0.2556,82.2383 3.0821,142.9002 2.6602,57.0936 0.7544,92.9433 0.9976,21.4101 -29.7875,51.4533 -27.3829,26.3085 -26.8841,37.0136 0.3325,7.1367 7.8017,13.9408 46.5548,1.407 145.8929,61.1482 47.7186,26.3854 80.9976,49.8675 33.279,23.4821 52.2846,47.6292 8.9655,38.9193 6.0622,53.359 14.6059,6.4716 14.6059,6.4716 38.5868,-16.1022 100.3232,-72.6202 88.953,-86.3948 161.2282,-146.9799 72.1089,-64.1534 120.2369,-105.7329 l -1.8289,-39.2518 q -14.9384,-13.6084 -32.7802,-12.777 -79.2456,64.4859 -86.3823,64.8184 -10.705,0.4988 -36.1822,-9.0424 -21.9089,-9.7075 -47.5524,-22.8171 -25.8097,-16.6779 -51.6195,-33.3558 -22.2414,-16.8442 -33.6115,-30.6188 -27.4723,-52.3614 -35.9391,-80.5756 l -7.3155,-157.0074 q 3.9777,-68.1311 4.8859,-125.391 0.9081,-57.2598 -1.2533,-103.6484 -0.7544,-92.9433 -3.2483,-146.4685 -2.4939,-53.5252 0.7419,-60.8282 8.7868,-118.4206 119.9812,-187.9712 152.2109,196.7454 189.7232,234.3347 33.8546,-40.9145 57.503,-70.6251 23.6483,-29.7106 40.6588,-48.3837 84.8859,-96.9336 83.7221,-121.912 z"
       style="font-size:3572.22px;font-family:'Breitkopf Fraktur';-inkscape-font-specification:'Breitkopf Fraktur';stroke:none;stroke-width:10"
       id="path812" />
    <path
       d="m 10169.897,2610.2104 -0.341,-171.4662 -71.977,-267.774 q -14.402,-57.1269 -21.653,-110.6959 -7.251,-53.569 -7.358,-107.1522 l -0.355,-178.6107 q -0.255,-128.5996 28.081,-250.1117 7.109,-17.8753 14.218,-35.7505 7.101,-21.4475 14.203,-42.895 28.436,-71.5011 31.994,-78.6526 -3.587,-7.1373 -157.419,-121.1427 -14.303,-7.116 -50.0678,-28.4783 -32.1925,-21.3693 -92.9983,-60.5429 -92.9912,-56.9707 -118.0748,-96.2154 3.5722,-0.01 3.4444,-64.3069 -0.057,-28.5777 -32.2068,-28.51378 -17.861,0.0355 -174.733,153.95318 -82.0046,78.7521 -128.3581,121.711 -42.7814,42.9518 -53.4696,57.2619 -131.8877,143.1514 -203.0124,304.043 -35.5729,75.0875 -35.3172,203.6872 0.1492,75.0164 32.5761,214.2688 7.2012,28.5635 14.3883,49.9826 7.187,21.4191 14.3599,35.6937 10.7947,39.273 17.996,67.8365 7.1941,24.9913 10.7948,39.2731 57.3898,117.7693 93.2326,178.4259 0.135,67.8721 -17.6337,114.3464 25.041,17.8113 42.902,17.7758 14.2889,-0.028 35.6725,-25.0765 206.6911,-250.4669 388.7603,-307.9846 14.3315,21.4049 21.5327,49.9684 32.4696,160.6856 54.0307,224.9429 75.464,224.9002 75.5208,253.4779 0.4475,225.0494 -224.5309,261.219 -71.4158,14.431 -92.8491,14.4736 l -64.2999,0.1278 q -32.1499,0.064 -71.4726,-14.1468 -35.7435,-10.6456 -64.3709,-35.5942 -28.6203,-21.3765 -46.5382,-49.9187 -17.9179,-28.5422 -10.8374,-60.7063 3.5296,-21.4404 3.487,-42.8737 3.5296,-21.4403 3.4941,-39.3014 -0.3126,-157.1774 -139.6289,-156.9003 -117.883,0.2344 -117.5847,150.2673 0.3055,153.6052 175.5215,242.5624 132.3068,67.6093 289.4842,67.2967 64.2998,-0.1278 167.8514,-21.7671 210.6753,-43.2856 324.78,-147.1071 24.97,-17.9108 46.332,-53.6755 21.37,-32.1926 46.283,-78.6811 46.261,-89.3976 46.147,-146.553 z m -388.0361,-1124.48 q 0.1,50.011 -21.1207,157.22 -7.0379,53.5974 -14.1042,92.906 -3.5012,35.7292 -3.4515,60.7347 l 0.3552,178.6106 q 0.035,17.8611 3.6788,53.5761 3.6361,32.1428 3.6645,46.4317 0.071,35.7221 -167.617,139.6501 -46.6163,-89.2129 -68.1419,-135.6091 -104.0488,-228.4156 -118.4584,-289.1148 -14.4025,-57.127 -21.6606,-114.2682 -7.2581,-57.1412 -7.3788,-117.8689 -0.057,-28.5777 -0.1137,-57.1554 3.5154,-28.5848 7.0237,-60.7418 3.5367,-17.8682 14.2036,-42.895 10.6669,-25.0268 35.6014,-60.7986 49.8689,-71.5437 74.8744,-71.5934 25.0055,-0.05 236.0857,160.2808 46.5098,35.6297 46.5595,60.6352 z"
       style="font-size:3572.22px;font-family:'Breitkopf Fraktur';-inkscape-font-specification:'Breitkopf Fraktur';stroke:none;stroke-width:10"
       id="path814" />
    <path
       d="m 11587.4,2274.105 q -6.631,-11.0418 -23.63,-29.7258 -86.986,24.5004 -65.576,25.5118 -67.797,-3.2027 -84.009,-189.9311 -10.396,-82.7438 -4.665,-204.064 4.214,-89.206 11.49,-167.5388 11.014,-81.7324 21.859,-159.8966 28.151,-141.7182 83.024,-167.7357 l 1.011,-21.4095 -218.9,-135.5078 q -52.175,-31.0743 -100.613,-65.5484 -48.27,-38.0422 -96.371,-79.6528 l 2.023,-42.8189 q 1.517,-32.1141 -23.292,-36.86229 -163.914,138.88119 -280.092,251.40769 -112.61,112.6951 -177.652,202.6038 -164.223,221.1192 -176.022,470.8961 -8.091,171.2756 35.29,312.7968 43.55,137.953 95.417,251.2655 2.557,21.578 1.714,39.4192 2.725,18.0098 -1.517,32.1142 24.978,1.1799 31.946,5.0853 l 453.192,-357.669 q 15.987,40.0934 21.607,72.5447 9.356,29.0516 11.744,54.1979 l 91.483,183.1318 q -0.506,10.7047 -8.485,28.2088 -7.811,13.9358 -7.979,17.504 3.231,7.3051 2.388,25.1463 24.978,1.1799 28.378,4.9167 z m -425.243,-763.9385 q 0.169,-3.5683 -25.454,84.6264 -24.416,138.3186 -35.935,230.7557 -11.35,88.8689 -16.773,127.951 l -7.922,167.7073 q -7.979,17.5041 -93.252,81.4237 -81.704,64.0882 -99.545,63.2454 -35.682,-1.6856 -78.221,-161.048 -15.313,-54.3665 -23.826,-101.2593 -8.345,-50.461 -13.29,-97.1853 l -21.832,-219.1797 4.72,-99.9108 q 2.528,-53.5236 12.193,-106.7101 13.233,-53.0179 29.36,-91.5943 16.296,-42.1446 35.317,-66.2795 19.19,-27.7031 33.463,-27.0289 28.546,1.3485 302.177,189.5087 z"
       style="font-size:3572.22px;font-family:'Breitkopf Fraktur';-inkscape-font-specification:'Breitkopf Fraktur';stroke:none;stroke-width:10"
       id="path816" />
    <path
       d="m 12896.632,1477.9656 q -2.882,-7.4496 -15.084,-30.1355 -12.203,-22.686 -36.946,-64.5016 -30.844,-53.1586 -52.704,-87.5246 -18.304,-34.029 -27.288,-52.8216 -3.219,-3.8933 -10.18,-44.0236 -3.068,-43.3495 -20.512,-48.5911 -231.73,211.2715 -342.766,322.7472 l -11.006,2.5451 q -37.165,-175.7575 -148.304,-290.3499 -4.416,-29.1244 -6.287,-47.2429 2.023,-21.3377 -0.86,-28.7873 l -28.45,-2.6965 -296.383,287.6729 -1.685,17.7814 q 12.877,15.5734 27.102,16.9217 7.113,0.6741 25.905,-8.3094 18.793,-8.9836 22.349,-8.6465 32.007,3.0336 53.716,76.8558 22.383,66.7096 16.687,202.5224 -8.241,124.807 -8.207,200.163 l -2.174,60.7939 q -0.674,7.1125 -9.135,20.6635 l -8.461,13.551 -8.763,92.4634 q -11.309,81.4574 -17.039,141.9142 -5.393,56.9005 -12.32,92.1263 -2.023,21.3377 -36.726,46.7543 -30.809,22.1975 -31.821,32.8663 -0.674,7.1126 5.765,14.8993 45.894,7.9381 135.847,81.052 43.535,32.8321 73.182,60.7596 29.647,27.9276 45.069,54.5069 3.405,39.7932 -1.5,53.6813 13.551,8.4608 13.551,8.4608 40.468,-10.5174 109.537,-57.7945 100.215,-73.0307 180.29,-122.8529 80.412,-53.3784 133.908,-87.7786 l 3.708,-39.1191 q -12.877,-15.5734 -30.658,-17.2587 -87.525,52.7043 -94.638,52.0301 -10.668,-1.0112 -34.551,-14.0395 -20.327,-12.6912 -43.872,-29.2758 -23.209,-20.1409 -46.418,-40.2817 -19.652,-19.8038 -28.973,-35.0401 -19.838,-55.7037 -24.254,-84.8281 l 14.831,-156.4764 q 13.517,-66.8953 22.466,-123.4587 8.95,-56.5635 13.332,-102.7951 12.319,-92.1263 17.375,-145.4705 5.056,-53.3443 9.287,-60.1198 25.348,-116.009 145.216,-169.236 123.039,216.1907 154.894,258.6805 39.271,-35.7485 66.861,-61.8393 27.591,-26.0908 47.057,-42.1869 97.671,-84.0367 100.03,-108.9307 z"
       style="font-size:3572.22px;font-family:'Breitkopf Fraktur';-inkscape-font-specification:'Breitkopf Fraktur';stroke:none;stroke-width:10"
       id="path818" />
    <path
       d="m 13938.379,1593.3102 20.726,-152.2009 q -15.288,-20.1077 -25.907,-21.5536 -53.093,-7.2299 -120.827,-12.8481 -64.193,-5.1362 -146.567,-9.1428 -19.475,-42.309 6.401,-179.3876 14.626,-80.9278 21.373,-130.4815 10.288,-49.0718 9.158,-67.2516 -57.747,53.4246 -100.373,101.6981 -38.603,45.2159 -61.603,81.741 -203.969,174.1157 -361.788,221.1238 l -7.23,53.0933 q 76.424,21.2224 92.676,34.251 51.813,43.1073 38.799,138.6753 -1.927,14.1582 -4.819,35.3955 -2.41,17.6978 -9.324,41.9927 l -11.086,81.4097 q 0.166,25.2589 -3.69,53.5753 0.166,25.2589 -4.654,60.6544 l -64.918,423.7825 q -28.783,78.9999 -51.948,90.2662 -7.079,-0.964 -44.885,11.9139 -37.323,9.3383 -44.237,33.6332 129.367,82.5095 268.403,252.8602 5.152,15.1222 4.188,22.2013 2.575,7.5611 5.151,15.1222 10.784,26.7048 24.942,28.6328 86.064,-49.5688 169.071,-103.159 86.546,-53.1083 172.61,-102.677 62.898,-38.3024 81.394,-68.2304 l -12.23,-16.0862 -28.316,-3.8559 q -57.748,53.4246 -78.985,50.5327 -31.856,-4.3379 -92.842,-59.5098 -64.043,-59.1935 -60.669,-83.9704 8.992,-92.5104 12.682,-146.0857 7.712,-56.6329 10.122,-74.3307 -1.446,10.6187 -0.964,7.0792 4.022,-3.0576 9.971,-20.2734 4.986,-10.1367 19.927,-119.8628 -0.482,3.5395 3.374,-24.7769 3.856,-28.3165 8.028,-85.4313 l 10.604,-77.8702 38.077,-279.6248 12.064,-9.1727 q 271.417,18.9333 298.121,8.149 z"
       style="font-size:3572.22px;font-family:'Breitkopf Fraktur';-inkscape-font-specification:'Breitkopf Fraktur';stroke:none;stroke-width:10"
       id="path820" />
    <path
       d="m 14865.275,2680.3686 q 6.79,-38.7034 -21.358,-43.6416 l -88.332,28.0246 q -91.234,23.8888 -133.456,16.4815 -87.962,-15.4318 -145.678,-203.2693 -15.987,-53.5797 -53.642,-252.4048 l 554.933,-268.9488 q -28.272,-128.2702 -55.062,-223.6396 -23.271,-94.7521 -40.925,-159.5045 0.617,-3.5185 3.086,-17.5924 3.086,-17.5925 4.506,-46.3576 7.407,-42.2218 -12.469,-52.9624 -110.678,31.3578 -176.048,52.5306 -64.752,17.6542 -83.579,21.6048 -131.357,45.8639 -258.516,150.4927 -152.591,125.5545 -175.245,234.0103 -13.827,37.4687 -27.036,71.419 -9.074,31.0491 -21.049,57.9624 -31.049,197.6524 -35.185,200.5536 -5.432,154.9985 21.79,268.5776 33.21,100.1224 62.469,181.4178 32.778,81.9127 60.987,148.5169 -1.851,10.5555 -20.246,32.7158 -17.778,18.6418 -19.012,25.6788 -4.938,28.1478 26.728,33.7033 17.592,3.0864 597.401,-221.6036 31.234,-12.6542 34.938,-33.7651 z m -156.296,-680.2399 q -2.469,14.0739 -119.752,62.407 -142.097,65.7403 -150.368,71.5427 -21.111,-3.7037 -28.58,-23.1479 -21.112,-210.43 -3.828,-308.9475 13.58,-77.4067 54.938,-106.4188 17.777,-18.6418 126.356,-79.3821 27.963,26.6664 42.284,69.0733 29.506,121.2334 48.209,200.677 22.84,76.5424 30.741,114.1963 z"
       style="font-size:3572.22px;font-family:'Breitkopf Fraktur';-inkscape-font-specification:'Breitkopf Fraktur';stroke:none;stroke-width:10"
       id="path822" />
    <path
       d="m 16383.367,2968.5801 q 1.57,-6.9697 -0.344,-14.7246 -1.13,-11.2397 -0.345,-14.7246 l -27.879,-6.2808 -67.879,24.9869 q -101.061,-22.7679 -41.394,-287.6186 2.356,-10.4546 9.766,-27.0939 10.895,-15.8542 12.466,-22.824 22.327,-82.8519 35.329,-156.8195 l 18.057,-80.1521 q 38.47,-170.759 53.291,-204.0376 36.515,-32.0529 67.19,-54.4362 34.16,-21.5982 62.48,-33.5269 l -95.814,-94.8208 q -117.316,-161.9147 -96.655,-204.8628 -1.915,-7.7548 3.581,-32.149 -3.485,-0.7851 -13.155,-6.6253 -9.669,-5.8401 -13.154,-6.6252 l -513.679,232.1405 q -3.485,-0.7851 -9.67,-5.8401 -2.7,-4.27 -6.185,-5.0551 31.653,-91.7364 -57.784,-247.3703 -7.659,-31.0194 -18.018,-66.3089 -9.573,-38.7742 -26.997,-42.6997 -20.91,-4.7106 -311.268,178.8741 -25.62,16.1987 -30.331,37.108 132.233,95.702 93.763,266.461 l -116.195,515.7619 q -21.982,97.5765 -57.809,159.0786 l -72.589,45.8962 -5.496,24.3942 q 105.924,82.4514 172.69,306.2127 71.115,-71.8605 99.09,-98.5138 134.725,-94.1477 240.497,-92.289 11.24,-1.1296 15.95,-22.0389 -122.122,-108.0713 -86.2,-202.5075 1.57,-6.9698 -0.345,-14.7246 -1.129,-11.2398 0.441,-18.2095 l 48.676,-216.0624 q 3.926,-17.4244 14.477,-48.0032 11.336,-34.0637 15.261,-51.4881 l 66.734,-296.2146 q 12.465,-22.8239 86.184,-57.4804 78.775,-40.8411 103.169,-35.3454 27.879,6.2809 73.431,64.1459 55.221,63.7052 43.789,130.703 2.355,-10.4547 -6.281,27.879 -7.851,34.8488 -30.964,121.1856 l -141.222,594.3439 q -19.09,35.9783 29.85,127.5625 62.439,112.9342 63.569,124.1739 0.689,29.4492 -0.537,51.1436 3.044,18.9946 3.389,33.7192 -3.485,-0.7851 30.234,-4.1738 64.835,-43.9816 112.59,-77.164 47.755,-33.1824 82.7,-58.2655 184.835,-137.7847 189.545,-158.694 z"
       style="font-size:3572.22px;font-family:'Breitkopf Fraktur';-inkscape-font-specification:'Breitkopf Fraktur';stroke:none;stroke-width:10"
       id="path824" />
  </g>
</svg>
