<?xml version="1.0" encoding="UTF-8" standalone="no"?>
<!-- Created with Inkscape (http://www.inkscape.org/) -->

<svg
   width="1761.6802mm"
   height="419.17487mm"
   viewBox="0 0 1761.6801 419.17487"
   version="1.1"
   id="svg5"
   inkscape:version="1.1.2 (0a00cf5339, 2022-02-04, custom)"
   sodipodi:docname="Kliergarten2 Release.svg"
   inkscape:export-filename="/home/thomas/Documents/Kliergarten.png"
   inkscape:export-xdpi="96"
   inkscape:export-ydpi="96"
   xmlns:inkscape="http://www.inkscape.org/namespaces/inkscape"
   xmlns:sodipodi="http://sodipodi.sourceforge.net/DTD/sodipodi-0.dtd"
   xmlns="http://www.w3.org/2000/svg"
   xmlns:svg="http://www.w3.org/2000/svg">
  <sodipodi:namedview
     id="namedview7"
     pagecolor="#ffffff"
     bordercolor="#666666"
     borderopacity="1.0"
     inkscape:pageshadow="2"
     inkscape:pageopacity="0.0"
     inkscape:pagecheckerboard="0"
     inkscape:document-units="mm"
     showgrid="false"
     inkscape:snap-global="false"
     inkscape:zoom="0.11313709"
     inkscape:cx="2859.363"
     inkscape:cy="1330.2446"
     inkscape:window-width="1852"
     inkscape:window-height="1160"
     inkscape:window-x="1748"
     inkscape:window-y="0"
     inkscape:window-maximized="1"
     inkscape:current-layer="layer1"
     fit-margin-top="0"
     fit-margin-left="0"
     fit-margin-right="0"
     fit-margin-bottom="0"
     inkscape:snap-bbox="false"
     inkscape:snap-grids="true" />
  <defs
     id="defs2">
    <rect
       x="-606.47656"
       y="596.79773"
       width="50.991619"
       height="467.57889"
       id="rect15528" />
    <rect
       x="-114.95341"
       y="724.6933"
       width="438.45239"
       height="87.859657"
       id="rect14290" />
    <rect
       x="6944.6138"
       y="1383.3839"
       width="7052.2021"
       height="651.32513"
       id="rect13800" />
  </defs>
  <g
     inkscape:label="Layer 1"
     inkscape:groupmode="layer"
     id="layer1"
     transform="translate(228.70472,-37.065896)">
    <path
       style="fill:#ffffff;stroke:#1e1f20;stroke-width:1.02889;stroke-linecap:butt;stroke-linejoin:miter;stroke-miterlimit:4;stroke-dasharray:none;stroke-opacity:1"
       d="M -201.81102,180.81588 C 290.51257,-5.853545 980.72065,-13.573626 1506.6857,178.3716 c -2.6401,27.88296 12.8035,54.20401 25.5996,54.95707 l -61.3584,193.5726 c -20.3952,-4.0915 -45.5395,5.43391 -50.7067,28.68373 -384.0419,-118.31266 -970.83034,-179.62857 -1531.93051,-0.68573 -8.106,-15.22886 -20.06849,-35.42814 -50.64569,-26.63158 l -65.72739,-195.42037 c 0,0 34.03951,-19.81186 26.27237,-52.03144 z"
       id="Outline"
       sodipodi:nodetypes="ccccccccc" />
    <path
       style="fill:none;stroke:#172983;stroke-width:3.08147;stroke-linecap:butt;stroke-linejoin:miter;stroke-miterlimit:4;stroke-dasharray:none;stroke-opacity:1"
       d="M -186.19791,193.81418 C 304.58934,3.5451583 976.44259,9.3196833 1491.4683,191.15955 c -2.601,25.93997 12.0819,48.86668 24.6889,49.56727 l -56.6566,172.63834 c -20.0938,-3.8065 -40.7156,5.65859 -45.8065,27.2883 C 945.85579,292.75403 380.96514,283.26488 -102.52199,436.9145 c -7.9862,-14.16759 -15.75904,-30.35093 -46.31453,-24.39117 l -61.00182,-170.09461 c 0,0 28.08669,-13.93161 23.64043,-48.61454 z"
       id="TrimLine"
       sodipodi:nodetypes="ccccccccc" />
    <path
       style="opacity:0.837576;fill:none;fill-opacity:1;stroke:none;stroke-width:6.01698;stroke-linecap:butt;stroke-linejoin:miter;stroke-miterlimit:4;stroke-dasharray:none;stroke-opacity:1"
       d="M -149.36488,414.01739 C 370.57921,254.22854 800.53219,216.34669 1459.5506,414.0707"
       id="Baseline"
       sodipodi:nodetypes="cc" />
    <g
       aria-label="Kliergarten"
       id="Test"
       style="font-size:318.38px;line-height:1.25;letter-spacing:7.95951px;word-spacing:0px;fill:#172983;stroke-width:6.01698">
      <path
         d="m 191.23986,162.32946 -3.12552,-9.74382 q -3.46815,-11.29841 -16.57477,-20.47257 -13.55459,-9.72747 -25.05345,-10.1274 -2.76144,-0.69548 -4.65866,-1.90745 -12.01535,-1.26415 -17.61188,-0.0307 -18.03327,3.9744 -26.501713,8.44895 -22.47001,13.42876 -33.830839,32.88568 -11.950964,21.21708 -6.606082,45.46872 2.398345,10.88215 6.082305,17.24268 4.822288,7.08772 8.300676,12.5155 3.720782,5.04834 6.097663,8.43674 20.812041,26.38514 21.328532,27.24937 12.917388,18.67047 14.973118,27.99802 0.13705,0.62184 0.09,7.80466 -0.0102,5.87063 -4.88982,11.83637 -4.94812,5.65481 -10.544647,6.88825 -9.016635,1.9872 -17.016631,-4.7262 -2.034261,-1.83381 -4.964455,-4.77424 -2.687801,-3.31988 -6.02914,-8.12582 -5.20173,-7.33011 -6.445404,-7.05602 1.865511,-0.41114 -21.194634,14.77778 3.68396,6.36054 7.504968,13.34291 4.063403,6.60293 8.885691,13.69065 l 2.798266,-0.61671 q 7.124541,-6.13449 8.990051,-6.54563 4.352858,-0.95934 14.228604,-0.52772 9.875746,0.43162 12.674012,-0.18509 12.125819,-2.67244 22.612179,-15.74224 15.64516,-20.72718 8.3816,-53.68453 -0.95933,-4.35286 -3.53667,-11.60933 -1.58117,-4.21581 -2.50881,-6.94555 -0.68524,-3.10918 -1.33878,-4.59525 2.62952,-2.86167 7.29329,-3.88953 3.4201,-0.75377 11.58373,11.1399 23.07846,33.71013 34.72047,51.03157 5.96574,4.87959 11.41498,8.89495 7.14089,4.29457 8.07364,4.089 1.24368,-0.2741 2.45565,-2.17131 7.17672,-16.25263 11.30254,-25.63846 4.36822,-9.76528 5.92793,-13.04322 -0.75376,-3.4201 -4.17387,-2.66634 0,0 -3.28817,4.31092 -2.73486,3.86295 -4.91129,4.34262 -6.21837,1.37048 -33.39193,-40.5657 -5.71822,-8.19434 -9.81845,-13.48508 -3.85783,-5.67017 -6.16619,-8.74765 l 17.13025,-40.61572 -49.00027,-21.15072 q -1.55459,0.34262 -3.21453,1.68652 -21.731604,25.65481 -23.163522,54.66021 -16.173863,-12.73643 -20.148263,-30.7697 -1.644579,-7.46205 2.691935,-18.85044 l -1.51777,-0.96958 q 1.106626,-0.89593 1.659938,-1.3439 0.795707,-0.82741 1.280496,-1.58629 12.957363,-24.04705 39.696346,-29.94013 14.30225,-3.15211 23.03455,-0.51235 2.82997,1.00639 6.1079,2.56611 3.20941,1.24879 6.86679,3.0509 11.73102,5.8911 13.34901,8.79471 1.79187,2.21326 3.13577,3.87319 1.58629,1.2805 2.48223,2.38712 1.23855,2.66122 2.34006,4.7006 1.03298,1.72846 1.68652,3.21453 3.95806,7.60421 6.49857,16.17288 3.03554,1.93916 4.59013,1.59653 5.28561,-1.16491 2.95579,-11.73613 z m -41.12925,39.71052 q 1.37049,6.21837 -9.63236,18.42394 -7.82003,8.89593 -12.27823,10.85655 -9.33267,4.99103 -9.64359,5.05956 l -8.3058,-9.58019 q -6.51392,-7.36693 -7.19917,-10.47612 -0.82229,-3.73102 1.85429,-13.77552 3.23501,-13.42777 11.62981,-15.27793 6.52928,-1.439 19.36693,3.55617 12.83764,4.99517 14.20812,11.21354 z"
         style="font-family:'Breitkopf Fraktur';-inkscape-font-specification:'Breitkopf Fraktur'"
         id="path18958" />
      <path
         d="m 303.38589,261.58417 q -0.36448,-2.19865 -1.4109,-2.67063 l -2.19865,0.36449 q -2.72606,4.97007 -4.61062,5.28248 -2.19865,0.36449 -8.94747,-3.35759 -7.5332,-4.56023 -8.0035,-5.45044 l -16.08942,-97.05484 q -5.57142,-33.60798 10.29448,-41.07905 1.15224,-0.83647 1.67629,-1.56879 0.83814,-0.7844 1.41425,-1.20263 l -0.62483,-3.76912 -7.53824,1.24966 q -5.65368,0.93725 -14.13923,8.15301 -7.01922,6.32723 -10.37346,11.40144 -2.46404,4.6039 -4.45609,8.16139 -1.99205,3.55749 -3.14597,6.33058 -4.65262,-6.65138 -8.4167,-11.83644 -3.45,-5.23712 -5.6453,-8.7459 -1.36051,-0.41991 -1.9887,-0.31577 -0.36616,-0.26202 -0.36616,-0.26202 -2.19865,0.36448 -1.73003,3.19132 0.20828,1.25638 4.59888,8.27392 2.24736,3.82287 3.29211,6.23148 1.30676,2.04244 1.82913,3.24675 2.29776,6.07359 4.17561,13.50769 2.13988,7.06793 4.17393,15.44432 1.87618,9.37073 6.20129,31.56721 l 7.70961,42.61256 q 0.46024,12.50998 0.61477,15.38889 -4.56023,7.53321 -7.65077,10.30462 26.00258,12.79382 29.76835,16.04225 1.09849,0.78607 1.46297,2.98472 0.10414,0.62819 -0.003,3.87326 0.1562,0.94228 1.62086,1.99038 l 2.19865,-0.36449 q 9.79902,-12.91983 16.0876,-21.70773 6.28858,-8.78791 9.79903,-12.91983 0.78607,-1.09849 0.42158,-3.29715 z"
         style="font-family:'Breitkopf Fraktur';-inkscape-font-specification:'Breitkopf Fraktur'"
         id="path18960" />
      <path
         d="m 350.65895,109.67011 q -0.74911,-5.68167 -5.07791,-9.28569 -4.32881,-3.604021 -10.01048,-2.854913 -5.05037,0.665875 -8.25551,5.584353 -2.88949,4.87687 -2.22361,9.92724 0.79072,5.99732 7.33227,21.51274 0.48212,1.22098 3.10783,4.08614 l 1.26259,-0.16647 q 2.69869,-3.8883 4.80771,-7.37772 2.38305,-3.84669 4.49206,-7.33611 5.27254,-8.72355 4.56505,-14.08957 z m 30.45856,148.20231 q -0.33294,-2.52519 -4.12072,-2.02578 -0.94694,0.12485 -2.71598,1.3215 -1.76904,1.19664 -2.08469,1.23826 -9.1538,1.2069 -11.7411,-13.54534 l -7.24842,-50.10484 q 0.23242,-0.67291 0.29836,-2.60842 0.066,-1.93551 0.007,-4.81796 -0.22537,-4.14504 1.56799,-7.59285 3.52079,-4.9601 5.24821,-6.47239 -13.28476,-8.20365 -23.88813,-22.8624 -0.48211,-1.22098 -2.69165,-0.92966 -1.01289,2.06036 -2.29981,4.47799 -0.97128,2.376 -2.21658,5.10927 -4.47477,9.90291 -14.52365,18.93507 5.31736,3.79482 7.6031,8.95276 0.35726,0.27403 2.46949,8.98733 l 7.2068,49.78919 q 0.0173,2.56681 0.30861,4.77634 0.29132,2.20954 0.18376,3.8294 1.58849,7.17668 2.80242,11.51252 1.52959,4.29422 3.0835,6.33729 4.01316,3.64564 7.27016,6.42757 3.25701,2.78193 5.75787,4.70015 1.36311,3.03163 0.9399,4.69311 0.31565,-0.0416 1.66148,0.42321 -0.31565,0.0416 0.31564,-0.0416 0.58968,-0.39888 2.12631,-0.92262 8.66143,-9.81263 13.36158,-15.5705 4.97418,-6.11513 6.30272,-8.2171 0.58968,-0.39888 1.85227,-0.56535 3.37161,-3.65589 3.16352,-5.23413 z"
         style="font-family:'Breitkopf Fraktur';-inkscape-font-specification:'Breitkopf Fraktur'"
         id="path18962" />
      <path
         d="m 477.07353,242.98343 q -0.32555,-3.48702 -2.86156,-3.25025 l -6.93588,4.48473 q -7.28248,4.19732 -11.0865,4.55247 -7.92503,0.7399 -17.30028,-14.05327 -2.63335,-4.23084 -10.54197,-20.44 l 41.391,-36.16059 q -5.44429,-10.3637 -9.9882,-17.93359 -4.22692,-7.59947 -7.26606,-12.75173 -0.0296,-0.317 -0.14798,-1.58501 -0.14798,-1.585 -0.70175,-4.09142 -0.35516,-3.80402 -2.31636,-4.26044 -8.77869,5.2963 -13.90135,8.65245 -5.15226,3.03914 -6.67807,3.82112 -10.21573,7.0293 -18.68991,19.01223 -10.16902,14.37952 -9.56854,24.23616 -0.30845,3.5462 -0.64649,6.77541 -0.0506,2.88261 -0.44787,5.47781 1.97438,17.72249 1.68697,18.06908 3.17464,13.45349 8.18354,22.57878 5.20752,7.82769 9.63305,14.12957 4.74254,6.27228 8.73269,11.33575 0.0888,0.951 -0.97205,3.2884 -1.09043,2.02039 -1.03124,2.65439 0.23677,2.53602 3.08978,2.26965 1.58501,-0.14798 46.15458,-33.08792 2.38803,-1.82177 2.21045,-3.72378 z m -29.41939,-54.81096 q 0.11838,1.26801 -8.82933,8.17892 -10.67215,8.99049 -11.24697,9.68368 -1.902,0.17758 -3.00099,-1.31864 -6.759,-17.59554 -7.58769,-26.47158 -0.65111,-6.97403 2.22295,-10.44001 1.09043,-2.02039 8.99835,-9.79352 3.03059,1.63565 5.25815,4.94509 5.3851,9.7297 8.85963,16.12036 3.76193,6.04407 5.3259,9.0957 z"
         style="font-family:'Breitkopf Fraktur';-inkscape-font-specification:'Breitkopf Fraktur'"
         id="path18964" />
      <path
         d="m 586.5201,157.92234 q -0.34833,-0.62088 -1.71135,-2.46836 -1.36302,-1.84748 -4.07391,-5.22443 -3.39239,-4.30069 -5.75494,-7.05676 -2.04454,-2.77123 -3.07438,-4.31585 -0.33318,-0.30286 -1.45397,-3.7556 -0.81792,-3.78591 -2.42318,-4.02814 -17.77788,21.56552 -26.16706,32.80258 l -0.9389,0.36349 q -5.49784,-15.03755 -16.75005,-23.74474 -0.7573,-2.51384 -1.15111,-4.08878 -0.0909,-1.90811 -0.43928,-2.52899 l -2.54415,0.12126 -22.51756,29.12248 0.0758,1.5901 q 1.33271,1.21144 2.60479,1.15081 0.63603,-0.0303 2.18066,-1.06016 1.54462,-1.02984 1.86264,-1.045 2.86217,-0.13642 5.70947,6.1027 2.81699,5.60308 4.02901,17.65749 0.84853,11.11551 1.80288,17.76359 l 0.57569,5.39117 q 0.0303,0.63603 -0.54509,1.93843 l -0.57541,1.30239 0.3941,8.26849 q 0.0306,7.32959 0.28828,12.73592 0.24252,5.0883 0.0761,8.28365 0.0909,1.90811 -2.64997,4.58868 -2.43805,2.3474 -2.39258,3.30145 0.0303,0.63604 0.69667,1.24176 4.14941,0.12097 13.00875,5.43606 4.25551,2.34711 7.22378,4.43682 2.96828,2.08972 4.66447,4.24006 0.80277,3.4679 0.54539,4.75513 1.30239,0.57541 1.30239,0.57541 3.43758,-1.43881 8.93455,-6.48193 7.91988,-7.70853 14.35575,-13.11514 6.42073,-5.72463 10.70626,-9.43505 l -0.16673,-3.4982 q -1.33271,-1.21145 -2.9228,-1.13566 -7.05676,5.75494 -7.6928,5.78526 -0.95406,0.0455 -3.22566,-0.80248 -1.95359,-0.86312 -4.24035,-2.02909 -2.30192,-1.48399 -4.60384,-2.96798 -1.98391,-1.49915 -2.99859,-2.72576 -2.4535,-4.66418 -3.2108,-7.17802 l -0.66693,-13.99283 q 0.34805,-6.07268 0.42355,-11.17614 0.0755,-5.10346 -0.12155,-9.23771 -0.0761,-8.28365 -0.30344,-13.05393 -0.22736,-4.77029 0.0603,-5.42148 0.77188,-10.55526 10.67565,-16.76464 13.58474,17.52078 16.93166,20.86741 3.01346,-3.64978 5.11833,-6.30004 2.10488,-2.65025 3.61918,-4.31613 7.55638,-8.64743 7.45028,-10.87357 z"
         style="font-family:'Breitkopf Fraktur';-inkscape-font-specification:'Breitkopf Fraktur'"
         id="path18966" />
      <path
         d="m 698.05577,274.82349 0.0467,-15.28217 -6.29458,-23.89785 q -1.25794,-5.09795 -1.8801,-9.87558 -0.62216,-4.77762 -0.60756,-9.5533 l 0.0486,-15.91893 q 0.035,-11.46162 2.61515,-22.27871 0.64163,-1.58994 1.28325,-3.17989 0.6426,-1.90832 1.28519,-3.81665 2.56649,-6.35978 2.88682,-6.99557 -0.31643,-0.63773 -13.97557,-10.86769 -1.27157,-0.64065 -4.44951,-2.56065 -2.85957,-1.91903 -8.2613,-5.43774 -8.26227,-5.11935 -10.48022,-8.62833 0.31838,9.7e-4 0.3359,-5.72984 0.008,-2.54703 -2.85762,-2.55579 -1.5919,-0.005 -15.6424,13.64259 -7.34411,6.98195 -11.49471,10.78984 -3.83222,3.80886 -4.79125,5.07946 -11.81893,12.69913 -18.23029,27.0067 -3.20422,6.67622 -3.23926,18.13785 -0.0204,6.68595 2.80702,19.11147 0.62897,2.54897 1.25989,4.46119 0.63092,1.91222 1.26378,3.18768 0.94443,3.50508 1.5734,6.05405 0.62995,2.2306 0.94443,3.50509 5.06195,10.52206 8.22919,15.94423 -0.0185,6.04919 -1.62304,10.18324 2.22379,1.59871 3.81568,1.60357 1.27351,0.004 3.1906,-2.21892 18.53407,-22.23005 34.78695,-27.27447 1.26767,1.91416 1.89664,4.46313 2.82162,14.3358 4.71437,20.07245 6.62464,20.07828 6.61686,22.62531 -0.0613,20.05785 -20.12889,23.18032 -6.37146,1.25405 -8.28173,1.24821 l -5.73082,-0.0175 q -2.8654,-0.009 -6.36368,-1.29298 -3.18086,-0.96487 -5.72108,-3.2013 -2.54119,-1.91806 -4.12529,-4.46995 -1.58411,-2.5519 -0.9386,-5.41536 0.32422,-1.90929 0.33006,-3.81957 0.32422,-1.90929 0.32908,-3.50119 0.0428,-14.00865 -12.37394,-14.0466 -10.50649,-0.0321 -10.54736,13.33978 -0.0419,13.69028 15.53437,21.69742 11.76151,6.0852 25.77017,6.12802 5.73081,0.0175 14.96963,-1.86453 18.79601,-3.76313 29.01234,-12.96496 2.23352,-1.58508 4.15352,-4.76303 1.91903,-2.85957 4.16033,-6.99168 4.16325,-7.94681 4.17882,-13.04086 z M 663.97744,174.42915 q -0.0136,4.4573 -1.95309,14.00282 -0.65136,4.77373 -1.29882,8.27395 -0.32811,3.18281 -0.33492,5.41146 l -0.0487,15.91892 q -0.005,1.5919 0.30378,4.77665 0.30962,2.86638 0.30573,4.1399 -0.01,3.18378 -15.00174,12.37102 -4.1146,-7.97211 -6.01222,-12.11687 -9.17069,-20.40445 -10.42766,-25.82078 -1.25794,-5.09794 -1.87913,-10.19395 -0.62119,-5.096 -0.60464,-10.50843 0.008,-2.54703 0.0156,-5.09406 0.32616,-2.54606 0.6533,-5.41049 0.32324,-1.59092 1.28519,-3.81665 0.96195,-2.22573 3.20033,-5.4027 4.47676,-6.35395 6.70541,-6.34714 2.22865,0.007 20.96919,14.39127 4.12919,3.19643 4.12238,5.42508 z"
         style="font-family:'Breitkopf Fraktur';-inkscape-font-specification:'Breitkopf Fraktur'"
         id="path18968" />
      <path
         d="m 827.5418,246.22036 q -0.58091,-0.9901 -2.07886,-2.67071 -7.77466,2.10446 -5.86753,2.21406 -6.03925,-0.34706 -7.3144,-17.00341 -0.85131,-7.38375 -0.23026,-18.19084 0.45665,-7.94639 1.17636,-14.92094 1.05584,-7.27415 2.0934,-14.23044 2.63778,-12.60463 7.55174,-14.87348 l 0.1096,-1.90713 -19.38559,-12.27571 q -4.6217,-2.81684 -8.90729,-5.93327 -4.26732,-3.43428 -8.51637,-7.18641 l 0.2192,-3.81427 q 0.16439,-2.8607 -2.04233,-3.30642 -14.73456,12.22837 -25.19086,22.15136 -10.13845,9.94125 -16.01692,17.89497 -14.83682,19.55731 -16.11544,41.8072 -0.87678,15.25707 2.86082,27.90917 3.75587,12.33423 8.27531,22.48002 0.20826,1.92539 0.11693,3.51467 0.22652,1.60755 -0.1644,2.8607 2.22499,0.12787 2.84244,0.48225 l 40.71459,-31.46422 q 1.38835,3.58774 1.85966,6.48497 0.80744,2.59764 0.99743,4.8409 l 7.98665,16.40423 q -0.0548,0.95357 -0.78184,2.50631 -0.70877,1.23489 -0.72704,1.55275 0.28133,0.65398 0.19,2.24325 2.22498,0.12787 2.52457,0.46399 z m -37.20402,-68.47029 q 0.0183,-0.31786 -2.34552,7.51894 -2.30165,12.30503 -3.41228,20.53275 -1.09237,7.90985 -1.61115,11.388 l -0.85851,14.93921 q -0.72704,1.55275 -8.38477,7.17188 -7.33988,5.63741 -8.92916,5.54608 -3.17856,-0.18267 -6.82483,-14.42404 -1.31528,-4.85916 -2.03139,-9.04608 -0.69784,-4.50478 -1.09609,-8.67343 l -1.74647,-19.55359 0.51145,-8.89996 q 0.27399,-4.76783 1.18369,-9.49913 1.22756,-4.71304 2.69991,-8.13639 1.49062,-3.7412 3.20776,-5.87486 1.73541,-2.45151 3.00683,-2.37845 2.54284,0.14613 26.7584,17.16408 z"
         style="font-family:'Breitkopf Fraktur';-inkscape-font-specification:'Breitkopf Fraktur'"
         id="path18970" />
      <path
         d="m 948.10495,177.00263 q -0.24864,-0.66709 -1.31112,-2.70232 -1.06247,-2.03523 -3.22139,-5.78913 -2.69015,-4.77152 -4.60042,-7.85833 -1.59372,-3.05285 -2.37359,-4.73755 -0.2826,-0.35053 -0.8587,-3.93462 -0.22557,-3.86668 -1.77442,-4.35306 -20.88484,18.5728 -30.90335,28.38499 l -0.98365,0.21467 q -3.11823,-15.70448 -12.89646,-26.03956 -0.36142,-2.60043 -0.50817,-4.21721 0.20378,-1.89938 -0.0449,-2.56647 l -2.5325,-0.27171 -26.731,25.31035 -0.16981,1.58282 q 1.1304,1.4021 2.39665,1.53795 0.63313,0.0679 2.31784,-0.71195 1.6847,-0.77987 2.00126,-0.74591 2.84907,0.30567 4.70232,6.90864 1.92117,5.96984 1.26371,18.06718 -0.87215,11.11368 -0.95224,17.82943 l -0.26081,5.41554 q -0.0679,0.63313 -0.8369,1.83146 l -0.76898,1.19832 -0.88304,8.23065 q -1.09771,7.24699 -1.67509,12.62857 -0.5434,5.06501 -1.1996,8.19668 -0.20377,1.89938 -3.32455,4.12622 -2.77025,1.94424 -2.87214,2.89393 -0.0679,0.63313 0.49728,1.33418 4.08136,0.75808 12.01724,7.37323 3.84361,2.97402 6.45494,5.49563 2.61133,2.52161 3.95641,4.90737 0.25953,3.55012 -0.19288,4.78241 1.19832,0.76898 1.19832,0.76898 3.61805,-0.89266 9.82564,-5.02977 9.01179,-6.39792 16.20303,-10.74971 7.2252,-4.66836 12.03068,-7.67507 l 0.37359,-3.4822 q -1.1304,-1.4021 -2.71321,-1.57192 -7.85833,4.60043 -8.49146,4.5325 -0.94969,-0.10189 -3.06374,-1.28932 -1.79749,-1.15346 -3.87758,-2.65746 -2.04613,-1.82056 -4.09226,-3.64111 -1.72957,-1.7866 -2.5434,-3.15474 -1.7065,-4.98619 -2.06792,-7.58663 l 1.49437,-13.92878 q 1.27842,-5.94678 2.13839,-10.97783 0.85997,-5.03105 1.30149,-9.14637 1.19961,-8.19669 1.70905,-12.94514 0.50945,-4.74845 0.89393,-5.34761 2.38704,-10.31074 13.1284,-14.92206 10.72664,19.40263 13.51868,23.22446 3.53923,-3.14257 6.02687,-5.43734 2.48765,-2.29476 4.24028,-3.70776 8.79712,-7.38158 9.03487,-9.59752 z"
         style="font-family:'Breitkopf Fraktur';-inkscape-font-specification:'Breitkopf Fraktur'"
         id="path18972" />
      <path
         d="m 1043.973,188.78528 2.0021,-13.54316 q -1.342,-1.80758 -2.2869,-1.94726 -4.7244,-0.69837 -10.7551,-1.26802 -5.7158,-0.52309 -13.053,-0.96401 -1.6925,-3.79044 0.7532,-15.98066 1.3858,-7.19747 2.0376,-11.60687 0.9668,-4.36284 0.8846,-5.98419 -5.2009,4.70246 -9.0489,8.96124 -3.4864,3.99038 -5.5733,7.22212 -18.35514,15.3097 -32.46796,19.33845 l -0.69837,4.72436 q 6.78939,1.96915 8.2245,3.14682 4.57373,3.8945 3.31666,12.39835 -0.18623,1.25983 -0.46558,3.14957 -0.23279,1.57479 -0.87366,3.73294 l -1.07084,7.24402 q -0.0109,2.25126 -0.38341,4.77091 -0.0109,2.25126 -0.47653,5.40084 l -6.2169,37.70177 q -2.64563,7.01123 -4.72161,7.99171 -0.62991,-0.0931 -4.01228,1.01609 -3.3358,0.79424 -3.97667,2.95239 11.44529,7.485 23.66293,22.80833 0.44368,1.35295 0.35057,1.98286 0.22184,0.67648 0.44368,1.35295 0.93392,2.39093 2.19375,2.57717 7.72055,-4.33 15.17272,-9.02151 7.7671,-4.64495 15.4876,-8.97495 5.6446,-3.34951 7.3235,-5.9979 l -1.0736,-1.44606 -2.5197,-0.37246 q -5.2009,4.70246 -7.0906,4.42311 -2.8346,-0.41903 -8.2136,-5.39808 -5.6473,-5.34057 -5.3214,-7.54527 0.8956,-8.23545 1.279,-13.00637 0.7449,-5.03932 0.9777,-6.6141 -0.1397,0.94487 -0.093,0.62991 0.3615,-0.2684 0.9092,-1.79663 0.4547,-0.89831 1.898,-10.66199 -0.047,0.31496 0.3259,-2.2047 0.3725,-2.51966 0.8024,-7.60554 l 1.0243,-6.92906 3.6781,-24.88163 1.0846,-0.8052 q 24.1695,1.96364 26.5604,1.02971 z"
         style="font-family:'Breitkopf Fraktur';-inkscape-font-specification:'Breitkopf Fraktur'"
         id="path18974" />
      <path
         d="m 1128.7532,286.84336 q 0.6312,-3.44483 -1.8742,-3.90388 l -7.8914,2.43823 q -8.1472,2.06768 -11.9052,1.3791 -7.8291,-1.43453 -12.8466,-18.21422 -1.3888,-4.786 -4.6109,-22.53145 l 49.6388,-23.59642 q -2.4334,-11.45099 -4.7568,-19.96873 -2.0103,-8.46036 -3.5402,-14.24324 0.057,-0.31316 0.2869,-1.56583 0.2869,-1.56583 0.4328,-4.12854 0.6886,-3.758 -1.0757,-4.72862 -9.8851,2.72027 -15.7254,4.56328 -5.7829,1.52985 -7.4635,1.86928 -11.7379,3.99919 -23.1412,13.23858 -13.684,11.08726 -15.776,20.73804 -1.2575,3.33007 -2.4577,6.34697 -0.8296,2.76111 -1.9149,5.15168 -2.9002,17.5947 -3.2708,17.85049 -0.5884,13.81044 1.7613,23.95139 2.8925,8.94567 5.4454,16.21074 2.8662,7.32245 5.3355,13.27748 -0.1721,0.9395 -1.8264,2.90213 -1.597,1.64948 -1.7118,2.27581 -0.459,2.50533 2.3595,3.02176 1.5658,0.28691 53.3919,-19.34825 2.7923,-1.10678 3.1366,-2.98578 z m -13.472,-60.73093 q -0.2296,1.25266 -10.7148,5.48138 -12.7085,5.76344 -13.4496,6.27501 -1.879,-0.34429 -2.5316,-2.08227 -1.7399,-18.76859 -0.1333,-27.53725 1.2624,-6.88966 4.9679,-9.44751 1.597,-1.64947 11.3148,-6.98984 2.4743,2.39543 3.7221,6.18455 2.5481,10.82467 4.1616,17.91759 1.984,6.83715 2.6629,10.19834 z"
         style="font-family:'Breitkopf Fraktur';-inkscape-font-specification:'Breitkopf Fraktur'"
         id="path18976" />
      <path
         d="m 1266.4913,312.96932 q 0.1386,-0.62149 -0.034,-1.31229 -0.1028,-1.00154 -0.034,-1.31228 l -2.486,-0.55448 -6.045,2.23991 q -9.0116,-2.01 -3.744,-25.62656 0.2079,-0.93223 0.8652,-2.41664 0.968,-1.4151 1.1067,-2.03659 1.9742,-7.38855 3.1189,-13.98348 l 1.5942,-7.14712 q 3.3962,-15.22646 4.7108,-18.19528 3.2483,-2.8637 5.978,-4.86448 3.0405,-1.93148 5.5622,-3.00002 l -8.5576,-8.43282 q -10.4868,-14.40856 -8.6535,-18.2403 -0.1721,-0.6908 0.313,-2.86601 -0.3107,-0.0693 -1.1736,-0.58799 -0.8629,-0.51867 -1.1737,-0.58798 l -45.7382,20.7876 q -0.3108,-0.0693 -0.8629,-0.51868 -0.2415,-0.38005 -0.5522,-0.44936 2.8036,-8.18216 -5.1972,-22.03624 -0.6885,-2.7632 -1.6185,-5.90645 -0.8606,-3.45399 -2.4143,-3.80054 -1.8645,-0.41586 -27.7082,16.00164 -2.2803,1.4486 -2.6961,3.31307 11.8036,8.50442 8.4074,23.73089 l -10.2579,45.99013 q -1.9407,8.70083 -5.122,14.18911 l -6.461,4.10437 -0.4851,2.17521 q 9.4563,7.32846 15.4494,27.2588 6.3246,-6.4182 8.8129,-8.79904 11.9896,-8.41668 21.417,-8.27115 1.0016,-0.10281 1.4174,-1.96727 -10.9049,-9.60879 -7.7212,-18.03238 0.1386,-0.62149 -0.034,-1.31229 -0.1028,-1.00154 0.036,-1.62303 l 4.2972,-19.26613 q 0.3466,-1.55373 1.2811,-4.28111 1.0038,-3.03813 1.3504,-4.59185 l 5.8914,-26.41325 q 1.1066,-2.03659 7.6704,-5.13943 7.0131,-3.65501 9.1883,-3.16984 2.4859,0.55449 6.5568,5.70312 4.9338,5.66732 3.9277,11.64077 0.2079,-0.93224 -0.5545,2.48595 -0.6931,3.10744 -2.7366,10.80673 l -12.4736,52.99863 q -1.6946,3.21025 2.6847,11.36352 5.5865,10.05354 5.6893,11.05508 0.067,2.62457 -0.038,4.55835 0.2749,1.69234 0.3084,3.00463 -0.3107,-0.0693 2.6939,-0.37775 5.7701,-3.93225 10.02,-6.89877 4.2499,-2.96652 7.3597,-5.20873 16.4474,-12.31543 16.8633,-14.1799 z"
         style="font-family:'Breitkopf Fraktur';-inkscape-font-specification:'Breitkopf Fraktur'"
         id="path18978" />
    </g>
    <text
       xml:space="preserve"
       transform="matrix(0.26458333,0,0,0.26458333,-228.71466,60.249636)"
       id="text13798"
       style="font-style:normal;font-weight:normal;font-size:40px;line-height:1.25;font-family:sans-serif;letter-spacing:0px;word-spacing:0px;white-space:pre;shape-inside:url(#rect13800);fill:#000000;fill-opacity:1;stroke:none" />
    <text
       xml:space="preserve"
       transform="matrix(0.26458333,0,0,0.26458333,-228.71466,60.249636)"
       id="text14288"
       style="font-style:normal;font-weight:normal;font-size:40px;line-height:1.25;font-family:sans-serif;letter-spacing:0px;word-spacing:0px;white-space:pre;shape-inside:url(#rect14290);fill:#000000;fill-opacity:1;stroke:none" />
    <text
       xml:space="preserve"
       transform="matrix(0.26458333,0,0,0.26458333,-228.71466,60.249636)"
       id="text15526"
       style="font-style:normal;font-weight:normal;font-size:40px;line-height:1.25;font-family:sans-serif;letter-spacing:0px;word-spacing:0px;white-space:pre;shape-inside:url(#rect15528);fill:#000000;fill-opacity:1;stroke:none" />
  </g>
  <style
     type="text/css"
     id="style33238">
	.st0{fill:#D7B369;}
	.st1{fill:#172983;}
</style>
</svg>
