<?xml version="1.0" encoding="UTF-8" standalone="no"?>
<!-- Created with Inkscape (http://www.inkscape.org/) -->

<svg
   width="297mm"
   height="210mm"
   viewBox="0 0 297 210"
   version="1.1"
   id="svg5"
   sodipodi:docname="Kliergarten Schrift 2.svg"
   inkscape:version="1.1.2 (0a00cf5339, 2022-02-04, custom)"
   xmlns:inkscape="http://www.inkscape.org/namespaces/inkscape"
   xmlns:sodipodi="http://sodipodi.sourceforge.net/DTD/sodipodi-0.dtd"
   xmlns="http://www.w3.org/2000/svg"
   xmlns:svg="http://www.w3.org/2000/svg">
  <sodipodi:namedview
     id="namedview7"
     pagecolor="#ffffff"
     bordercolor="#666666"
     borderopacity="1.0"
     inkscape:pageshadow="2"
     inkscape:pageopacity="0.0"
     inkscape:pagecheckerboard="0"
     inkscape:document-units="mm"
     showgrid="false"
     inkscape:zoom="0.14030934"
     inkscape:cx="673.51181"
     inkscape:cy="880.19797"
     inkscape:window-width="1610"
     inkscape:window-height="1010"
     inkscape:window-x="70"
     inkscape:window-y="150"
     inkscape:window-maximized="1"
     inkscape:current-layer="layer1" />
  <defs
     id="defs2" />
  <g
     inkscape:label="Layer 1"
     inkscape:groupmode="layer"
     id="layer1">
    <g
       aria-label="Kliergarten"
       id="text6986"
       style="font-size:52.9167px;line-height:1.25;letter-spacing:1.32292px;word-spacing:0px;fill:none;stroke:#000000;stroke-width:0.0831031;stroke-miterlimit:4;stroke-dasharray:none;stroke-opacity:1"
       transform="matrix(5.9778544,0.68190483,-0.68190483,5.9778544,-373.78188,-438.26293)">
      <path
         d="m 71.625686,74.493802 -0.540258,-1.61267 q -0.600521,-1.870299 -2.798343,-3.36697 -2.273453,-1.58767 -4.185331,-1.629565 -0.460417,-0.109683 -0.778308,-0.30705 -1.999561,-0.18442 -2.927027,0.03253 -2.988499,0.699046 -4.386329,1.460775 -3.705651,2.279769 -5.552162,5.537634 -1.940825,3.551652 -1.000729,7.570669 0.421838,1.803405 1.047675,2.852606 0.816571,1.167622 1.40625,2.062245 0.629152,0.831046 1.031412,1.389093 3.515178,4.340541 3.602862,4.483066 2.186664,3.075288 2.548239,4.621064 0.0241,0.103052 0.03163,1.296883 0.01084,0.975676 -0.787361,1.977558 -0.810256,0.95036 -1.737722,1.1673 -1.49425,0.34953 -2.838132,-0.74909 -0.341997,-0.30042 -0.835256,-0.78284 -0.453785,-0.545991 -1.019359,-1.337563 -0.88015,-1.207094 -1.086253,-1.158884 0.309155,-0.07232 -3.490811,2.501237 0.625836,1.0492 1.275777,2.20145 0.689415,1.08868 1.505987,2.2563 l 0.463732,-0.10847 q 1.170937,-1.03473 1.480093,-1.10705 0.721362,-0.16873 2.363557,-0.1181 1.642196,0.0506 2.105929,-0.0578 2.009508,-0.47005 3.724335,-2.66456 2.55582,-3.478118 1.278253,-8.939859 -0.168735,-0.721362 -0.612573,-1.921825 -0.271787,-0.697257 -0.431785,-1.148937 -0.120526,-0.515259 -0.232314,-0.760836 0.430891,-0.481206 1.203779,-0.661994 0.566784,-0.132577 1.948929,1.826616 3.907491,5.553056 5.879315,8.406873 1.001886,0.798203 1.916088,1.453882 1.195936,0.698467 1.350514,0.66231 0.206103,-0.04821 0.40347,-0.366102 1.15799,-2.716397 1.823616,-4.285067 0.705099,-1.632248 0.957307,-2.180348 -0.132577,-0.566785 -0.699362,-0.434207 0,0 -0.537258,0.723467 -0.446259,0.647836 -0.80694,0.732204 -1.030517,0.24105 -5.636159,-6.670362 -0.967834,-1.34962 -1.660564,-2.220139 -0.653257,-0.934096 -1.043464,-1.440618 l 2.760134,-6.786623 -8.188663,-3.410392 q -0.257629,0.06026 -0.530627,0.287155 -3.556811,4.310066 -3.73281,9.133602 -2.715186,-2.08214 -3.414232,-5.070639 -0.28926,-1.236621 0.407102,-3.138551 l -0.254313,-0.157893 q 0.181998,-0.151262 0.272997,-0.226893 0.130473,-0.139209 0.20942,-0.266366 2.102034,-4.024122 6.533257,-5.060638 2.37019,-0.554416 3.827071,-0.134367 0.47247,0.16121 1.02057,0.413418 0.536048,0.200682 1.147727,0.492364 1.962193,0.953992 2.237295,1.433093 0.302524,0.363997 0.529416,0.636994 0.266366,0.209419 0.417628,0.391418 0.211525,0.439627 0.398944,0.776203 0.175367,0.285051 0.287155,0.530627 0.674047,1.255305 1.114569,2.673924 0.508627,0.315787 0.766256,0.255524 0.87594,-0.204893 0.466154,-1.956772 z m -6.750519,6.687466 q 0.24105,1.030517 -1.56146,3.082498 -1.280621,1.495144 -2.017351,1.83051 -1.540355,0.849413 -1.591881,0.861465 l -1.400829,-1.574407 q -1.098306,-1.21041 -1.218831,-1.725669 -0.14463,-0.61831 0.278735,-2.293347 0.508943,-2.238507 1.900141,-2.563925 1.082043,-0.253102 3.226234,0.549627 2.144191,0.80273 2.385242,1.833248 z"
         style="font-family:'Breitkopf Fraktur';-inkscape-font-specification:'Breitkopf Fraktur';fill:none;stroke:#000000;stroke-width:0.0831031;stroke-miterlimit:4;stroke-dasharray:none;stroke-opacity:1"
         id="path25518" />
      <path
         d="m 90.514622,91.027407 q -0.06017,-0.365498 -0.233999,-0.44414 l -0.365498,0.06017 q -0.45402,0.825544 -0.767304,0.877115 -0.365497,0.06017 -1.486492,-0.559732 -1.251208,-0.759351 -1.329208,-0.907398 L 83.676182,73.919304 q -0.919694,-5.586895 1.718718,-6.825653 0.191665,-0.138809 0.278902,-0.260428 0.139452,-0.130214 0.235284,-0.199618 l -0.103143,-0.626568 -1.253135,0.206287 q -0.939851,0.154715 -2.351556,1.352424 -1.167824,1.050305 -1.726272,1.893039 -0.410401,0.764735 -0.74216,1.355637 -0.331759,0.590901 -0.524067,1.051589 -0.772045,-1.106373 -1.396685,-1.968867 -0.572427,-0.871089 -0.93664,-1.45468 -0.226047,-0.07005 -0.330474,-0.05286 -0.06081,-0.04362 -0.06081,-0.04362 -0.365498,0.06017 -0.28814,0.530092 0.03438,0.208856 0.762807,1.376039 0.372809,0.635805 0.545999,1.036326 0.216808,0.339712 0.303403,0.539973 0.380762,1.009898 0.691476,2.245843 0.354333,1.175135 0.690834,2.567722 0.310072,1.557823 1.024764,5.247824 l 1.273385,7.083909 q 0.07415,2.079321 0.09929,2.557842 -0.759351,1.251208 -1.273538,1.711254 4.319383,2.13129 4.944666,2.671905 0.182428,0.130856 0.242595,0.496354 0.01719,0.104428 -0.0013,0.643758 0.02579,0.156642 0.269023,0.331117 l 0.365498,-0.06017 q 1.631082,-2.145514 2.677931,-3.604936 1.046848,-1.459421 1.631082,-2.145513 0.130856,-0.182428 0.07069,-0.547926 z"
         style="font-family:'Breitkopf Fraktur';-inkscape-font-specification:'Breitkopf Fraktur';fill:none;stroke:#000000;stroke-width:0.0831031;stroke-miterlimit:4;stroke-dasharray:none;stroke-opacity:1"
         id="path25520" />
      <path
         d="m 98.446483,65.820264 q -0.120305,-0.944873 -0.837106,-1.547078 -0.716801,-0.602205 -1.661674,-0.481901 -0.839887,0.106937 -1.376232,0.92204 -0.483852,0.808421 -0.376915,1.648307 0.126987,0.997366 1.20275,3.580935 0.07923,0.203288 0.513513,0.681433 l 0.209972,-0.02674 q 0.45141,-0.644258 0.804518,-1.222655 0.398917,-0.637574 0.752025,-1.215972 0.882769,-1.445995 0.769149,-2.338374 z m 4.952767,24.654404 q -0.0535,-0.419943 -0.68338,-0.33974 -0.15748,0.02005 -0.45239,0.21763 -0.29491,0.197581 -0.3474,0.204264 -1.52229,0.193823 -1.941407,-2.259977 l -1.167672,-8.333007 q 0.03913,-0.11167 0.05152,-0.433311 0.01239,-0.321641 0.0047,-0.800761 -0.03439,-0.689092 0.266221,-1.260806 0.588839,-0.821787 0.877058,-1.07186 -2.201918,-1.373305 -3.953405,-3.817495 -0.07923,-0.203288 -0.446677,-0.156503 -0.169871,0.341691 -0.38555,0.74256 -0.163187,0.394184 -0.372183,0.847546 -0.75105,1.642598 -2.427896,3.136353 0.880963,0.634648 1.257049,1.49361 0.05918,0.04581 0.403795,1.49556 l 1.160988,8.280515 q 9.76e-4,0.426627 0.04776,0.794077 0.04678,0.367451 0.02771,0.636599 0.258707,1.19397 0.457263,1.915504 0.251049,0.71485 0.507805,1.055566 0.664309,0.608889 1.203581,1.073666 0.539272,0.464777 0.953507,0.785443 0.224314,0.504879 0.152746,0.78071 0.05249,-0.0067 0.275832,0.07157 -0.05249,0.0067 0.05249,-0.0067 0.0983,-0.06586 0.354083,-0.151771 1.446832,-1.624499 2.232272,-2.578007 0.83125,-1.012684 1.05361,-1.361059 0.0983,-0.06586 0.30828,-0.09259 0.56308,-0.605132 0.52966,-0.867597 z"
         style="font-family:'Breitkopf Fraktur';-inkscape-font-specification:'Breitkopf Fraktur';fill:none;stroke:#000000;stroke-width:0.0831031;stroke-miterlimit:4;stroke-dasharray:none;stroke-opacity:1"
         id="path25522" />
      <path
         d="m 119.29877,88.09159 q -0.0511,-0.579833 -0.47283,-0.542644 l -1.15659,0.739464 q -1.21396,0.691402 -1.8465,0.747185 -1.31781,0.116217 -2.86339,-2.35046 -0.43407,-0.705429 -1.73469,-3.406198 l 6.91018,-5.974736 q -0.89602,-1.72713 -1.64479,-2.989149 -0.69605,-1.266668 -1.19677,-2.125585 -0.005,-0.05271 -0.0232,-0.26356 -0.0233,-0.263561 -0.11315,-0.680609 -0.0558,-0.632545 -0.38135,-0.710078 -1.46357,0.872781 -2.31784,1.426217 -0.85892,0.500724 -1.11318,0.629392 -1.70389,1.159585 -3.12255,3.143968 -1.70239,2.381261 -1.61099,4.019985 -0.0543,0.589131 -0.11323,1.125549 -0.0109,0.479058 -0.0791,0.910052 0.31304,2.94723 0.26497,3.00459 0.51617,2.238729 1.34089,3.75966 0.85883,1.305434 1.589,2.356604 0.78288,1.046522 1.44174,1.891493 0.0139,0.158136 -0.16436,0.545716 -0.18296,0.334867 -0.17366,0.440291 0.0372,0.421697 0.5116,0.379859 0.26356,-0.02324 7.69928,-5.459984 0.39846,-0.300749 0.37056,-0.617022 z m -4.84288,-9.134882 q 0.0186,0.210848 -1.47444,1.351838 -1.78142,1.485155 -1.87755,1.599876 -0.31627,0.02789 -0.49765,-0.221723 -1.10837,-2.930212 -1.23853,-4.406151 -0.10227,-1.159666 0.37837,-1.733274 0.18295,-0.334867 1.50391,-1.620048 0.5023,0.274435 0.86971,0.826376 0.88672,1.621707 1.45875,2.686823 0.6201,1.007756 0.87743,1.516283 z"
         style="font-family:'Breitkopf Fraktur';-inkscape-font-specification:'Breitkopf Fraktur';fill:none;stroke:#000000;stroke-width:0.0831031;stroke-miterlimit:4;stroke-dasharray:none;stroke-opacity:1"
         id="path25524" />
      <path
         d="m 137.44546,74.025533 q -0.0576,-0.103376 -0.28315,-0.411152 -0.22557,-0.307776 -0.67436,-0.870463 -0.56158,-0.716575 -0.95281,-1.175886 -0.33836,-0.461663 -0.50872,-0.718927 -0.0552,-0.05051 -0.23968,-0.624962 -0.13396,-0.629668 -0.40064,-0.670769 -2.96608,3.57499 -4.36629,5.438252 l -0.15624,0.05992 q -0.90589,-2.502201 -2.77151,-3.955278 -0.12455,-0.41821 -0.18917,-0.680179 -0.0141,-0.317187 -0.0717,-0.420563 l -0.42291,0.01882 -3.7578,4.828513 0.0118,0.264322 q 0.22087,0.202047 0.43233,0.192636 0.10573,-0.0047 0.36299,-0.175061 0.25726,-0.170357 0.31013,-0.172709 0.47578,-0.02117 0.94575,1.017292 0.46526,0.932738 0.66039,2.936879 0.1352,1.8479 0.29034,2.953347 l 0.0929,0.896342 q 0.005,0.105729 -0.0916,0.321891 l -0.0963,0.216163 0.0612,1.374474 q 0.001,1.218233 0.0412,2.116927 0.0376,0.84583 0.008,1.376827 0.0141,0.317186 -0.44284,0.761275 -0.40645,0.388871 -0.39939,0.547465 0.005,0.105728 0.11514,0.206752 0.68959,0.02228 2.15927,0.910318 0.70606,0.39233 1.19831,0.741207 0.49225,0.348877 0.77304,0.707165 0.1316,0.576803 0.0882,0.790613 0.21616,0.09632 0.21616,0.09632 0.5721,-0.237336 1.48837,-1.072649 1.32036,-1.27705 2.39287,-2.172285 1.07016,-0.948099 1.78438,-1.562544 l -0.0259,-0.581509 q -0.22087,-0.202046 -0.48519,-0.190283 -1.17588,0.952805 -1.28161,0.95751 -0.1586,0.0071 -0.5357,-0.135067 -0.32425,-0.144477 -0.70371,-0.339466 -0.38181,-0.247854 -0.76363,-0.495707 -0.32895,-0.250206 -0.49695,-0.454606 -0.40534,-0.776497 -0.52989,-1.194707 l -0.10352,-2.326032 q 0.061,-1.009129 0.0763,-1.857311 0.0152,-0.848183 -0.0154,-1.53542 -0.008,-1.376826 -0.0436,-2.169792 -0.0353,-0.792965 0.0129,-0.901047 0.13382,-1.753935 1.78313,-2.780778 2.24868,2.919164 2.8032,3.477146 0.50277,-0.605034 0.854,-1.044418 0.35122,-0.439383 0.60378,-0.715468 1.26044,-1.43329 1.24398,-1.80334 z"
         style="font-family:'Breitkopf Fraktur';-inkscape-font-specification:'Breitkopf Fraktur';fill:none;stroke:#000000;stroke-width:0.0831031;stroke-miterlimit:4;stroke-dasharray:none;stroke-opacity:1"
         id="path25526" />
      <path
         d="m 155.83822,93.443506 0.005,-2.539997 -1.05109,-3.970677 q -0.21012,-0.847052 -0.31451,-1.640994 -0.10438,-0.793943 -0.10294,-1.587692 l 0.005,-2.64583 q 0.003,-1.904998 0.4301,-3.703391 0.10631,-0.26439 0.21263,-0.528779 0.10641,-0.317307 0.21282,-0.634613 0.42527,-1.05756 0.47838,-1.163297 -0.0527,-0.10593 -2.32505,-1.803414 -0.21147,-0.106219 -0.74006,-0.424684 -0.47567,-0.318369 -1.37419,-0.902094 -1.37429,-0.849176 -1.74364,-1.431935 0.0529,9.7e-5 0.0547,-0.952402 7.8e-4,-0.423333 -0.47547,-0.424202 -0.26459,-4.83e-4 -2.59707,2.270682 -1.21921,1.161944 -1.90828,1.795688 -0.63616,0.633841 -0.7953,0.845217 -1.96177,2.113092 -3.02445,4.492408 -0.53119,1.110283 -0.53467,3.015281 -0.002,1.111249 0.47045,3.175866 0.10506,0.423526 0.21032,0.741218 0.10525,0.317693 0.2107,0.529553 0.15769,0.582372 0.26275,1.005898 0.10515,0.37061 0.15769,0.582373 0.84347,1.747793 1.371,2.648341 -0.002,1.005416 -0.26767,1.692849 0.36993,0.265259 0.63451,0.265742 0.21167,3.86e-4 0.52984,-0.369451 3.07593,-3.698562 5.77622,-4.540302 0.21109,0.317886 0.31615,0.741412 0.4719,2.382116 0.78766,3.335195 1.10517,3.335774 1.10439,3.759107 -0.006,3.333746 -3.34079,3.856829 -1.05872,0.209735 -1.37622,0.209155 l -0.9525,-0.0017 q -0.47625,-8.69e-4 -1.05794,-0.213598 -0.52888,-0.159715 -0.95154,-0.530904 -0.42275,-0.318273 -0.68656,-0.742088 -0.26381,-0.423816 -0.15711,-0.899872 0.0535,-0.317403 0.0541,-0.634903 0.0535,-0.317403 0.054,-0.581986 0.004,-2.328331 -2.05949,-2.332097 -1.74625,-0.0032 -1.75031,2.21931 -0.004,2.275415 2.58635,3.603062 1.95608,1.00899 4.28441,1.01324 0.9525,0.002 2.48766,-0.312963 3.12324,-0.629302 4.81937,-2.160793 0.3709,-0.263907 0.68936,-0.792494 0.31837,-0.47567 0.69005,-1.16291 0.69033,-1.32166 0.69187,-2.168326 z m -5.68457,-16.679162 q -0.001,0.740833 -0.32175,2.327752 -0.10728,0.793556 -0.21418,1.375446 -0.0539,0.529069 -0.0546,0.899485 l -0.005,2.645831 q -4.8e-4,0.264583 0.0515,0.793846 0.052,0.476346 0.0517,0.688012 -9.6e-4,0.529166 -2.49084,2.059209 -0.68551,-1.324171 -1.00175,-2.012666 -1.5284,-3.389464 -1.73843,-4.289432 -0.21012,-0.847052 -0.31441,-1.693911 -0.10428,-0.846859 -0.10264,-1.746441 7.7e-4,-0.423333 0.002,-0.846666 0.0537,-0.423237 0.10748,-0.899389 0.0534,-0.264487 0.21282,-0.634613 0.15943,-0.370127 0.53081,-0.898617 0.74277,-1.05698 1.11318,-1.056304 0.37042,6.76e-4 3.48815,2.387621 0.68695,0.530421 0.68628,0.900837 z"
         style="font-family:'Breitkopf Fraktur';-inkscape-font-specification:'Breitkopf Fraktur';fill:none;stroke:#000000;stroke-width:0.0831031;stroke-miterlimit:4;stroke-dasharray:none;stroke-opacity:1"
         id="path25528" />
      <path
         d="m 177.23676,88.549948 q -0.0977,-0.163886 -0.34859,-0.441478 -1.28974,0.358735 -0.97264,0.37475 -1.00414,-0.05071 -1.23529,-2.817563 -0.15001,-1.226211 -0.0593,-3.023089 0.0667,-1.321233 0.1783,-2.48125 0.16709,-1.210196 0.33151,-2.367543 0.42386,-2.097959 1.23795,-2.480717 l 0.016,-0.317096 -3.23609,-2.017882 q -0.77139,-0.462832 -1.48726,-0.975843 -0.71319,-0.565862 -1.42373,-1.184572 l 0.032,-0.634192 q 0.024,-0.475644 -0.34325,-0.547177 -2.43481,2.049381 -4.16122,3.710666 -1.67356,1.663955 -2.64139,2.992662 -2.44335,3.267586 -2.63019,6.967039 -0.12812,2.536769 0.50768,4.635261 0.63846,2.045642 1.40131,3.726678 0.0368,0.319765 0.0235,0.584012 0.0395,0.266916 -0.024,0.475644 0.36994,0.01868 0.47297,0.07687 l 6.73055,-5.276396 q 0.23488,0.594688 0.31656,1.075671 0.1372,0.430802 0.17136,0.803416 l 1.34633,2.717203 q -0.008,0.158548 -0.12706,0.417456 -0.11637,0.206059 -0.11904,0.258909 0.0475,0.108367 0.0342,0.372614 0.36994,0.01868 0.42012,0.0742 z m -6.26238,-11.33698 q 0.003,-0.05285 -0.38116,1.25237 -0.36834,2.047778 -0.54344,3.416523 -0.17242,1.315895 -0.25463,1.894569 l -0.12545,2.483919 q -0.11905,0.258908 -1.3853,1.201656 -1.21339,0.945416 -1.47764,0.932071 -0.52849,-0.02669 -1.15094,-2.38943 -0.22421,-0.806086 -0.34806,-1.501135 -0.12118,-0.747898 -0.19218,-1.440278 l -0.31283,-3.247832 0.0747,-1.479781 q 0.04,-0.79274 0.18577,-1.580142 0.19858,-0.784733 0.43934,-1.355399 0.24343,-0.623516 0.52636,-0.980115 0.2856,-0.409449 0.49699,-0.398773 0.4228,0.02135 4.46711,2.821832 z"
         style="font-family:'Breitkopf Fraktur';-inkscape-font-specification:'Breitkopf Fraktur';fill:none;stroke:#000000;stroke-width:0.0831031;stroke-miterlimit:4;stroke-dasharray:none;stroke-opacity:1"
         id="path25530" />
      <path
         d="m 197.02737,76.801437 q -0.0426,-0.110375 -0.22323,-0.446522 -0.1806,-0.336146 -0.54681,-0.955761 -0.45651,-0.787688 -0.78008,-1.296927 -0.27089,-0.50422 -0.40383,-0.782669 -0.0477,-0.0577 -0.15048,-0.652215 -0.0451,-0.642176 -0.30349,-0.719951 -3.43428,3.127928 -5.07993,4.778438 l -0.16305,0.03762 q -0.54924,-2.603841 -2.19473,-4.302167 -0.0652,-0.431464 -0.0928,-0.699874 0.0301,-0.316069 -0.0125,-0.426444 l -0.42143,-0.04016 -4.39257,4.259213 -0.0251,0.26339 q 0.19063,0.230791 0.40134,0.250869 0.10536,0.01004 0.38381,-0.122899 0.27845,-0.132936 0.33113,-0.127917 0.4741,0.04518 0.79513,1.138893 0.33108,0.988361 0.2457,3.000168 -0.12301,1.848753 -0.12306,2.965032 l -0.0326,0.900547 q -0.01,0.105356 -0.13548,0.30603 l -0.12543,0.200673 -0.13051,1.369631 q -0.16812,1.206576 -0.25345,2.102104 -0.0803,0.84285 -0.18319,1.364611 -0.0301,0.316069 -0.54437,0.692318 -0.45656,0.328591 -0.47162,0.486626 -0.01,0.105356 0.0853,0.220751 0.67979,0.117931 2.01175,1.201662 0.64466,0.486678 1.08363,0.9006 0.43896,0.413922 0.66722,0.807766 0.0501,0.589498 -0.0226,0.795191 0.20068,0.125434 0.20068,0.125434 0.59953,-0.155499 1.62303,-0.85532 1.48508,-1.08109 2.67163,-1.818531 1.19157,-0.790119 1.98428,-1.299305 l 0.0552,-0.579459 q -0.19063,-0.230791 -0.45402,-0.255888 -1.29693,0.78008 -1.40228,0.770041 -0.15804,-0.01506 -0.51173,-0.208229 -0.30101,-0.188151 -0.64968,-0.433999 -0.34365,-0.298527 -0.68729,-0.597054 -0.29098,-0.293507 -0.42893,-0.519278 -0.29346,-0.825308 -0.35866,-1.256771 l 0.22086,-2.317837 q 0.20073,-0.990845 0.33371,-1.828675 0.13299,-0.83783 0.19825,-1.522645 0.18318,-1.364611 0.25847,-2.154783 0.0753,-0.790171 0.13801,-0.890508 0.37636,-1.718299 2.15241,-2.505882 1.82101,3.20343 2.29258,3.833084 0.58199,-0.529265 0.9909,-0.915553 0.4089,-0.386289 0.69739,-0.624582 1.44745,-1.244144 1.48259,-1.612891 z"
         style="font-family:'Breitkopf Fraktur';-inkscape-font-specification:'Breitkopf Fraktur';fill:none;stroke:#000000;stroke-width:0.0831031;stroke-miterlimit:4;stroke-dasharray:none;stroke-opacity:1"
         id="path25532" />
      <path
         d="m 212.86433,78.507014 0.29912,-2.255671 q -0.22751,-0.297069 -0.38488,-0.317938 -0.78686,-0.104346 -1.79051,-0.184059 -0.95119,-0.07276 -2.17163,-0.127838 -0.29068,-0.625726 0.0855,-2.657655 0.21246,-1.199565 0.30985,-1.93397 0.14984,-0.727448 0.13217,-0.996692 -0.85266,0.794388 -1.48158,1.511687 -0.56951,0.671797 -0.90832,1.214047 -3.01243,2.589801 -5.34781,3.294326 l -0.10435,0.786862 q 1.1332,0.310413 1.37462,0.502567 0.76975,0.635876 0.58193,2.052228 -0.0278,0.20983 -0.0696,0.524574 -0.0348,0.262288 -0.13594,0.622534 l -0.15999,1.206521 q 0.004,0.374159 -0.0519,0.793819 0.004,0.374159 -0.0658,0.898733 l -0.93968,6.280984 q -0.42228,1.17174 -0.76485,1.339832 -0.10492,-0.01391 -0.66427,0.178811 -0.5524,0.140266 -0.65355,0.500512 1.92062,1.215532 3.98904,3.731782 0.0771,0.223742 0.0632,0.328657 0.0385,0.111872 0.0771,0.223743 0.16113,0.395028 0.37096,0.422853 1.27233,-0.738737 2.49915,-1.536888 1.27928,-0.791195 2.5516,-1.529932 0.92975,-0.570646 1.20219,-1.014938 l -0.18201,-0.237655 -0.41966,-0.05565 q -0.85266,0.794388 -1.1674,0.75265 -0.47212,-0.06261 -1.37838,-0.876725 -0.95176,-0.873531 -0.90307,-1.240734 0.12841,-1.37085 0.1803,-2.164668 0.1113,-0.83932 0.14608,-1.101607 -0.0209,0.157372 -0.0139,0.104915 0.0594,-0.0455 0.14665,-0.300833 0.0733,-0.150416 0.28898,-1.776597 -0.007,0.05246 0.0487,-0.367202 0.0557,-0.41966 0.11449,-1.265936 l 0.15304,-1.154064 0.54956,-4.144141 0.17824,-0.136503 q 4.02155,0.266395 4.41658,0.10526 z"
         style="font-family:'Breitkopf Fraktur';-inkscape-font-specification:'Breitkopf Fraktur';fill:none;stroke:#000000;stroke-width:0.0831031;stroke-miterlimit:4;stroke-dasharray:none;stroke-opacity:1"
         id="path25534" />
      <path
         d="m 227.13435,94.559455 q 0.0955,-0.574189 -0.32205,-0.643673 l -1.30481,0.426624 q -1.34831,0.365739 -1.9747,0.261513 -1.30498,-0.217136 -2.18437,-2.992025 -0.24379,-0.791585 -0.82745,-3.731843 l 8.1851,-4.056141 q -0.43548,-1.896364 -0.84474,-3.305565 -0.35705,-1.400516 -0.62699,-2.357383 0.009,-0.0522 0.0434,-0.260996 0.0434,-0.260995 0.0607,-0.687273 0.10423,-0.626388 -0.1916,-0.782899 -1.63537,0.478909 -2.60092,0.801048 -0.95687,0.26994 -1.23523,0.33091 -1.93979,0.696477 -3.80975,2.262881 -2.24396,1.879684 -2.56541,3.489168 -0.19993,0.556819 -0.39119,1.061439 -0.13037,0.461106 -0.30425,0.861327 -0.43418,2.931832 -0.49507,2.975345 -0.0603,2.296672 0.35775,3.975554 0.50496,1.478771 0.94896,2.679176 0.49619,1.209091 0.92273,2.192015 -0.0261,0.156597 -0.29565,0.487248 -0.26091,0.278453 -0.27828,0.382851 -0.0695,0.417592 0.40031,0.495761 0.26099,0.04343 8.82034,-3.360356 0.46102,-0.191511 0.51313,-0.504706 z M 224.7306,84.503534 q -0.0347,0.208796 -1.76573,0.940015 -2.09631,0.9923 -2.21808,1.079327 -0.31319,-0.05211 -0.42636,-0.339164 -0.34011,-3.114312 -0.0969,-4.575886 0.19108,-1.148379 0.79992,-1.583515 0.26091,-0.278452 1.86137,-1.192324 0.41767,0.391363 0.63533,1.017665 0.45285,1.791966 0.74025,2.966315 0.34828,1.130835 0.47022,1.687567 z"
         style="font-family:'Breitkopf Fraktur';-inkscape-font-specification:'Breitkopf Fraktur';fill:none;stroke:#000000;stroke-width:0.0831031;stroke-miterlimit:4;stroke-dasharray:none;stroke-opacity:1"
         id="path25536" />
      <path
         d="m 250.03216,98.517543 q 0.0214,-0.10365 -0.009,-0.217994 -0.0197,-0.166168 -0.009,-0.217993 l -0.4146,-0.08555 -0.99865,0.388281 q -1.50292,-0.310118 -0.6902,-4.248811 0.0321,-0.155475 0.13737,-0.403906 0.15712,-0.237737 0.17851,-0.341387 0.30847,-1.233104 0.48122,-2.332121 l 0.24595,-1.191973 q 0.524,-2.53942 0.73458,-3.036282 0.53223,-0.484524 0.98056,-0.824267 0.50015,-0.32905 0.91639,-0.513318 l -1.44452,-1.378698 q -1.78098,-2.366658 -1.48649,-3.0083 -0.0304,-0.114344 0.0444,-0.477118 -0.0518,-0.01069 -0.19661,-0.0946 -0.14478,-0.08391 -0.1966,-0.0946 l -7.54584,3.575957 q -0.0518,-0.01069 -0.14479,-0.08391 -0.0411,-0.06252 -0.093,-0.07321 0.4442,-1.367191 -0.92218,-3.6483 -0.12175,-0.457374 -0.28463,-0.977267 -0.15218,-0.571717 -0.41131,-0.625186 -0.31095,-0.06416 -4.56221,2.732758 -0.37512,0.246788 -0.43928,0.557737 1.98416,1.381985 1.46017,3.921405 l -1.58267,7.670087 q -0.29943,1.451097 -0.81356,2.371608 l -1.06281,0.699231 -0.0749,0.362774 q 1.59095,1.192785 2.6398,4.48901 1.03402,-1.0834 1.44122,-1.48566 1.97016,-1.430541 3.53724,-1.431373 0.16617,-0.01974 0.23033,-0.330693 -1.83773,-1.567897 -1.33101,-2.976219 0.0214,-0.10365 -0.009,-0.217994 -0.0197,-0.166168 0.002,-0.269818 l 0.66301,-3.213145 q 0.0535,-0.259124 0.20153,-0.714855 0.15877,-0.507555 0.21223,-0.766679 l 0.90897,-4.405118 q 0.17851,-0.341387 1.26107,-0.874448 1.15577,-0.626018 1.51854,-0.551162 0.4146,0.08555 1.10478,0.930373 0.83496,0.928729 0.68361,1.924096 0.0321,-0.155474 -0.0856,0.4146 -0.10694,0.518249 -0.42611,1.803178 l -1.93227,8.840672 q -0.27311,0.537993 0.4763,1.881322 0.95507,1.655923 0.97481,1.822093 0.0181,0.43599 0.006,0.75763 0.0502,0.28051 0.0592,0.4985 -0.0518,-0.0107 0.44668,-0.0699 0.94847,-0.66879 1.64687,-1.17306 0.6984,-0.50427 1.20924,-0.88514 2.70064,-2.09029 2.7648,-2.401239 z"
         style="font-family:'Breitkopf Fraktur';-inkscape-font-specification:'Breitkopf Fraktur';fill:none;stroke:#000000;stroke-width:0.0831031;stroke-miterlimit:4;stroke-dasharray:none;stroke-opacity:1"
         id="path25538" />
    </g>
  </g>
</svg>
